<svg width="204" height="196" viewBox="0 0 204 196" fill="none" xmlns="http://www.w3.org/2000/svg">
<path d="M1.292 118H3.587V114.039H5.508C7.854 114.039 9.554 112.543 9.554 110.401C9.554 108.242 7.854 106.78 5.508 106.78H1.292V118ZM3.587 112.033V108.803H5.508C6.545 108.803 7.208 109.449 7.208 110.401C7.208 111.37 6.579 112.033 5.508 112.033H3.587ZM11.2328 118H13.5278V105.25H11.2328V118ZM22.8532 113.002C22.8532 110.673 21.4422 109.398 19.2492 109.398C17.7702 109.398 16.5462 109.976 15.5772 111.132L16.7672 112.543C17.5152 111.744 18.1272 111.387 18.9942 111.387C20.0142 111.387 20.5582 111.931 20.5582 112.866V113.24H18.4502C16.4952 113.24 15.2712 114.175 15.2712 115.688C15.2712 117.167 16.3932 118.204 18.1782 118.204C19.2492 118.204 20.1332 117.813 20.7452 117.184V118H22.8532V113.002ZM20.5582 114.855C20.5582 115.824 19.7932 116.521 18.7902 116.521C18.0592 116.521 17.5832 116.164 17.5832 115.603C17.5832 115.042 18.0082 114.753 18.7562 114.753H20.5582V114.855ZM32.7969 112.781C32.7969 110.741 31.5899 109.398 29.6349 109.398C28.6319 109.398 27.7649 109.755 27.1699 110.35V109.585H25.0619V118H27.3569V113.087C27.3569 112.118 28.0199 111.455 28.9549 111.455C29.8899 111.455 30.5189 112.118 30.5189 113.087V118H32.7969V112.781ZM40.4122 116.079C39.8172 116.13 39.4602 116.147 39.3242 116.147C38.2362 116.147 37.7602 115.79 37.7602 114.838V111.523H40.1402V109.585H37.7602V107.46H35.4652V109.585H34.1392V111.523H35.4652V115.042C35.4652 117.15 36.7062 118.204 38.8312 118.204C39.3412 118.204 39.8682 118.136 40.4122 118V116.079ZM56.4651 118L53.2861 113.597C54.5101 112.985 55.2581 111.829 55.2581 110.401C55.2581 108.242 53.5581 106.78 51.2121 106.78H46.9961V118H49.2911V114.039H50.9741L53.8811 118H56.4651ZM49.2911 108.803H51.2121C52.2491 108.803 52.9121 109.449 52.9121 110.401C52.9121 111.37 52.2831 112.016 51.2121 112.016H49.2911V108.803ZM65.2031 114.566C65.3051 114.141 65.3561 113.716 65.3561 113.308C65.3561 111.115 63.7241 109.398 61.3951 109.398C58.9641 109.347 56.9411 111.37 56.9921 113.801C56.9411 116.232 58.9981 118.255 61.5991 118.204C62.8401 118.204 63.9621 117.779 64.9651 116.946L64.0131 115.382C63.2821 115.943 62.5001 116.232 61.6671 116.232C60.4431 116.232 59.5761 115.637 59.3041 114.566H65.2031ZM59.3041 112.951C59.5591 111.914 60.3411 111.251 61.3101 111.251C62.3131 111.251 63.1121 111.914 63.1291 112.951H59.3041ZM74.8818 112.781C74.8818 110.741 73.6748 109.398 71.7198 109.398C70.7168 109.398 69.8498 109.755 69.2548 110.35V109.585H67.1468V118H69.4418V113.087C69.4418 112.118 70.1048 111.455 71.0398 111.455C71.9748 111.455 72.6038 112.118 72.6038 113.087V118H74.8818V112.781ZM76.6151 113.784C76.5641 116.181 78.6381 118.238 81.1031 118.187C83.5681 118.238 85.6931 116.181 85.6421 113.784C85.6931 111.387 83.5851 109.364 81.1201 109.398C78.6551 109.347 76.5641 111.387 76.6151 113.784ZM83.2961 113.801C83.2961 115.11 82.3611 116.079 81.1201 116.079C79.8451 116.079 78.9441 115.11 78.9441 113.801C78.9441 112.458 79.8451 111.489 81.1201 111.489C82.3611 111.489 83.2961 112.492 83.2961 113.801ZM92.8309 109.585L90.7059 114.345L88.5809 109.585H86.1669L90.3319 118.204H91.0969L95.2619 109.585H92.8309ZM103.321 113.002C103.321 110.673 101.91 109.398 99.717 109.398C98.238 109.398 97.014 109.976 96.045 111.132L97.235 112.543C97.983 111.744 98.595 111.387 99.462 111.387C100.482 111.387 101.026 111.931 101.026 112.866V113.24H98.918C96.963 113.24 95.739 114.175 95.739 115.688C95.739 117.167 96.861 118.204 98.646 118.204C99.717 118.204 100.601 117.813 101.213 117.184V118H103.321V113.002ZM101.026 114.855C101.026 115.824 100.261 116.521 99.258 116.521C98.527 116.521 98.051 116.164 98.051 115.603C98.051 115.042 98.476 114.753 99.224 114.753H101.026V114.855ZM110.936 116.079C110.341 116.13 109.984 116.147 109.848 116.147C108.76 116.147 108.284 115.79 108.284 114.838V111.523H110.664V109.585H108.284V107.46H105.989V109.585H104.663V111.523H105.989V115.042C105.989 117.15 107.23 118.204 109.355 118.204C109.865 118.204 110.392 118.136 110.936 118V116.079ZM112.602 118H114.897V109.585H112.602V118ZM112.279 106.525C112.279 107.324 112.925 107.936 113.741 107.936C114.557 107.936 115.22 107.324 115.22 106.525C115.22 105.709 114.557 105.097 113.741 105.097C112.925 105.097 112.279 105.709 112.279 106.525ZM116.691 113.784C116.64 116.181 118.714 118.238 121.179 118.187C123.644 118.238 125.769 116.181 125.718 113.784C125.769 111.387 123.661 109.364 121.196 109.398C118.731 109.347 116.64 111.387 116.691 113.784ZM123.372 113.801C123.372 115.11 122.437 116.079 121.196 116.079C119.921 116.079 119.02 115.11 119.02 113.801C119.02 112.458 119.921 111.489 121.196 111.489C122.437 111.489 123.372 112.492 123.372 113.801ZM135.245 112.781C135.245 110.741 134.038 109.398 132.083 109.398C131.08 109.398 130.213 109.755 129.618 110.35V109.585H127.51V118H129.805V113.087C129.805 112.118 130.468 111.455 131.403 111.455C132.338 111.455 132.967 112.118 132.967 113.087V118H135.245V112.781Z" fill="#3D3D3D"/>
<path d="M13.09 135.76L10.542 142.788L7.658 135.606H7.266L4.382 142.802L1.834 135.76H0.63L4.144 145.154H4.536L7.462 137.818L10.388 145.154H10.78L14.28 135.76H13.09ZM21.292 141.92C21.348 141.64 21.376 141.374 21.376 141.108C21.376 139.302 20.032 138.028 18.268 138.028C16.322 138.028 14.782 139.624 14.782 141.598C14.782 143.6 16.364 145.154 18.394 145.154C19.472 145.154 20.41 144.706 21.124 143.964L20.494 143.236C19.878 143.852 19.178 144.16 18.408 144.16C17.064 144.16 16.028 143.264 15.902 141.92H21.292ZM15.944 140.968C16.182 139.792 17.106 139.008 18.24 139.008C19.374 139.008 20.256 139.75 20.27 140.968H15.944ZM32.3039 140.8C32.3039 139.008 31.2539 138.028 29.6439 138.028C28.5099 138.028 27.4879 138.518 26.8719 139.526L27.5859 140.114C28.1459 139.386 28.7479 139.022 29.5739 139.022C30.5959 139.022 31.2259 139.624 31.2259 140.744V141.332H29.0699C27.5999 141.332 26.6199 142.074 26.6199 143.236C26.6199 144.412 27.5999 145.154 28.9999 145.154C29.9939 145.154 30.7919 144.79 31.2959 144.118V145H32.3039V140.8ZM31.2259 142.382C31.2259 143.432 30.2599 144.258 29.1399 144.258C28.3419 144.258 27.7259 143.866 27.7259 143.18C27.7259 142.55 28.2439 142.214 29.1959 142.214H31.2259V142.382ZM38.2164 138.182C38.0344 138.14 37.8664 138.126 37.7124 138.126C36.8864 138.126 36.0884 138.49 35.5984 139.148V138.182H34.5904V145H35.6684V141.136C35.6684 139.876 36.6624 139.134 37.8104 139.134H38.2164V138.182ZM45.5459 141.92C45.6019 141.64 45.6299 141.374 45.6299 141.108C45.6299 139.302 44.2859 138.028 42.5219 138.028C40.5759 138.028 39.0359 139.624 39.0359 141.598C39.0359 143.6 40.6179 145.154 42.6479 145.154C43.7259 145.154 44.6639 144.706 45.3779 143.964L44.7479 143.236C44.1319 143.852 43.4319 144.16 42.6619 144.16C41.3179 144.16 40.2819 143.264 40.1559 141.92H45.5459ZM40.1979 140.968C40.4359 139.792 41.3599 139.008 42.4939 139.008C43.6279 139.008 44.5099 139.75 44.5239 140.968H40.1979ZM56.5578 140.8C56.5578 139.008 55.5078 138.028 53.8978 138.028C52.7638 138.028 51.7418 138.518 51.1258 139.526L51.8398 140.114C52.3998 139.386 53.0018 139.022 53.8278 139.022C54.8498 139.022 55.4798 139.624 55.4798 140.744V141.332H53.3238C51.8538 141.332 50.8738 142.074 50.8738 143.236C50.8738 144.412 51.8538 145.154 53.2538 145.154C54.2478 145.154 55.0458 144.79 55.5498 144.118V145H56.5578V140.8ZM55.4798 142.382C55.4798 143.432 54.5138 144.258 53.3938 144.258C52.5958 144.258 51.9798 143.866 51.9798 143.18C51.9798 142.55 52.4978 142.214 53.4498 142.214H55.4798V142.382ZM64.4863 140.716C64.4863 139.106 63.5343 138.028 61.9523 138.028C61.0983 138.028 60.3563 138.35 59.8523 138.91V138.182H58.8443V145H59.9223V140.842C59.9223 139.778 60.6643 139.022 61.7143 139.022C62.7643 139.022 63.4083 139.764 63.4083 140.842V145H64.4863V140.716ZM70.2078 141.584C70.1798 143.502 71.8178 145.182 73.7638 145.14C75.7098 145.182 77.3898 143.502 77.3478 141.584C77.3898 139.638 75.7238 138 73.7778 138.028C71.8318 137.986 70.1658 139.638 70.2078 141.584ZM76.2418 141.598C76.2418 143.026 75.1498 144.146 73.7638 144.146C72.3778 144.146 71.3138 143.026 71.3138 141.598C71.3138 140.128 72.3778 139.022 73.7778 139.022C75.1638 139.022 76.2418 140.128 76.2418 141.598ZM84.8847 140.716C84.8847 139.106 83.9327 138.028 82.3507 138.028C81.4967 138.028 80.7547 138.35 80.2507 138.91V138.182H79.2427V145H80.3207V140.842C80.3207 139.778 81.0627 139.022 82.1127 139.022C83.1627 139.022 83.8067 139.764 83.8067 140.842V145H84.8847V140.716ZM87.1724 145H88.2504V134.5H87.1724V145ZM90.6177 145H91.6957V138.182H90.6177V145ZM90.3517 135.578C90.3517 136.026 90.7157 136.362 91.1637 136.362C91.6117 136.362 91.9617 136.026 91.9617 135.578C91.9617 135.144 91.5977 134.794 91.1637 134.794C90.7157 134.794 90.3517 135.144 90.3517 135.578ZM99.705 140.716C99.705 139.106 98.753 138.028 97.171 138.028C96.317 138.028 95.575 138.35 95.071 138.91V138.182H94.063V145H95.141V140.842C95.141 139.778 95.883 139.022 96.933 139.022C97.983 139.022 98.627 139.764 98.627 140.842V145H99.705V140.716ZM108.013 141.92C108.069 141.64 108.097 141.374 108.097 141.108C108.097 139.302 106.753 138.028 104.989 138.028C103.043 138.028 101.503 139.624 101.503 141.598C101.503 143.6 103.085 145.154 105.115 145.154C106.193 145.154 107.131 144.706 107.845 143.964L107.215 143.236C106.599 143.852 105.899 144.16 105.129 144.16C103.785 144.16 102.749 143.264 102.623 141.92H108.013ZM102.665 140.968C102.903 139.792 103.827 139.008 104.961 139.008C106.095 139.008 106.977 139.75 106.991 140.968H102.665ZM120.873 141.584C120.873 139.582 119.445 138.028 117.499 138.028C116.435 138.028 115.441 138.49 114.923 139.274V138.182H113.915V147.52H114.993V144.02C115.553 144.734 116.491 145.154 117.499 145.154C119.417 145.154 120.873 143.586 120.873 141.584ZM119.767 141.598C119.767 143.068 118.731 144.16 117.345 144.16C116.085 144.16 114.979 143.32 114.979 141.584C114.979 139.862 116.127 139.022 117.345 139.022C118.731 139.022 119.767 140.128 119.767 141.598ZM122.76 145H123.838V134.5H122.76V145ZM131.316 140.8C131.316 139.008 130.266 138.028 128.656 138.028C127.522 138.028 126.5 138.518 125.884 139.526L126.598 140.114C127.158 139.386 127.76 139.022 128.586 139.022C129.608 139.022 130.238 139.624 130.238 140.744V141.332H128.082C126.612 141.332 125.632 142.074 125.632 143.236C125.632 144.412 126.612 145.154 128.012 145.154C129.006 145.154 129.804 144.79 130.308 144.118V145H131.316V140.8ZM130.238 142.382C130.238 143.432 129.272 144.258 128.152 144.258C127.354 144.258 126.738 143.866 126.738 143.18C126.738 142.55 127.256 142.214 128.208 142.214H130.238V142.382ZM139.244 140.716C139.244 139.106 138.292 138.028 136.71 138.028C135.856 138.028 135.114 138.35 134.61 138.91V138.182H133.602V145H134.68V140.842C134.68 139.778 135.422 139.022 136.472 139.022C137.522 139.022 138.166 139.764 138.166 140.842V145H139.244V140.716ZM145.256 144.09C144.906 144.146 144.612 144.174 144.346 144.174C143.408 144.174 142.904 143.838 142.904 142.872V139.148H145.032V138.182H142.904V136.32H141.826V138.182H140.678V139.148H141.826V142.942C141.826 144.44 142.708 145.154 144.122 145.154C144.444 145.154 144.822 145.098 145.256 145V144.09ZM150.144 143.824C150.746 144.608 151.67 145.154 152.804 145.154C153.476 145.154 154.036 144.986 154.498 144.636C154.96 144.286 155.198 143.782 155.198 143.152C155.198 142.214 154.666 141.682 153.392 141.136L152.762 140.87C151.936 140.52 151.656 140.31 151.656 139.876C151.656 139.33 152.118 139.022 152.79 139.022C153.42 139.022 154.008 139.316 154.47 139.778L155.128 139.106C154.568 138.434 153.798 138.028 152.846 138.028C151.544 138.028 150.55 138.742 150.55 139.932C150.55 140.842 151.11 141.36 152.244 141.822L152.902 142.102C153.742 142.438 154.092 142.648 154.092 143.194C154.092 143.796 153.532 144.16 152.79 144.16C152.02 144.16 151.488 143.782 150.83 143.11L150.144 143.824ZM162.787 140.716C162.787 139.106 161.835 138.028 160.267 138.028C159.413 138.028 158.685 138.378 158.223 138.952V134.5H157.145V145H158.223V140.856C158.223 139.792 158.965 139.022 160.015 139.022C161.065 139.022 161.709 139.75 161.709 140.856V145H162.787V140.716ZM164.585 141.584C164.557 143.502 166.195 145.182 168.141 145.14C170.087 145.182 171.767 143.502 171.725 141.584C171.767 139.638 170.101 138 168.155 138.028C166.209 137.986 164.543 139.638 164.585 141.584ZM170.619 141.598C170.619 143.026 169.527 144.146 168.141 144.146C166.755 144.146 165.691 143.026 165.691 141.598C165.691 140.128 166.755 139.022 168.155 139.022C169.541 139.022 170.619 140.128 170.619 141.598ZM180.578 141.584C180.578 139.582 179.15 138.028 177.204 138.028C176.14 138.028 175.146 138.49 174.628 139.274V138.182H173.62V147.52H174.698V144.02C175.258 144.734 176.196 145.154 177.204 145.154C179.122 145.154 180.578 143.586 180.578 141.584ZM179.472 141.598C179.472 143.068 178.436 144.16 177.05 144.16C175.79 144.16 174.684 143.32 174.684 141.584C174.684 139.862 175.832 139.022 177.05 139.022C178.436 139.022 179.472 140.128 179.472 141.598ZM0.7 163.584C0.672 165.502 2.31 167.182 4.256 167.14C6.202 167.182 7.882 165.502 7.84 163.584C7.882 161.638 6.216 160 4.27 160.028C2.324 159.986 0.658 161.638 0.7 163.584ZM6.734 163.598C6.734 165.026 5.642 166.146 4.256 166.146C2.87 166.146 1.806 165.026 1.806 163.598C1.806 162.128 2.87 161.022 4.27 161.022C5.656 161.022 6.734 162.128 6.734 163.598ZM10.9809 158.628C10.9809 157.662 11.4989 157.326 12.4089 157.326C12.5909 157.326 12.7869 157.34 13.0109 157.368V156.458C12.7449 156.388 12.4509 156.346 12.1569 156.346C10.7709 156.346 9.90292 157.06 9.90292 158.558V160.182H8.92292V161.148H9.90292V167H10.9809V161.148H12.6889V160.182H10.9809V158.628ZM14.7954 158.628C14.7954 157.662 15.3134 157.326 16.2234 157.326C16.4054 157.326 16.6014 157.34 16.8254 157.368V156.458C16.5594 156.388 16.2654 156.346 15.9714 156.346C14.5854 156.346 13.7174 157.06 13.7174 158.558V160.182H12.7374V161.148H13.7174V167H14.7954V161.148H16.5034V160.182H14.7954V158.628ZM23.8077 163.92C23.8637 163.64 23.8917 163.374 23.8917 163.108C23.8917 161.302 22.5477 160.028 20.7837 160.028C18.8377 160.028 17.2977 161.624 17.2977 163.598C17.2977 165.6 18.8797 167.154 20.9097 167.154C21.9877 167.154 22.9257 166.706 23.6397 165.964L23.0097 165.236C22.3937 165.852 21.6937 166.16 20.9237 166.16C19.5797 166.16 18.5437 165.264 18.4177 163.92H23.8077ZM18.4597 162.968C18.6977 161.792 19.6217 161.008 20.7557 161.008C21.8897 161.008 22.7717 161.75 22.7857 162.968H18.4597ZM29.4117 160.182C29.2297 160.14 29.0617 160.126 28.9077 160.126C28.0817 160.126 27.2837 160.49 26.7937 161.148V160.182H25.7857V167H26.8637V163.136C26.8637 161.876 27.8577 161.134 29.0057 161.134H29.4117V160.182ZM30.858 167H31.936V160.182H30.858V167ZM30.592 157.578C30.592 158.026 30.956 158.362 31.404 158.362C31.852 158.362 32.202 158.026 32.202 157.578C32.202 157.144 31.838 156.794 31.404 156.794C30.956 156.794 30.592 157.144 30.592 157.578ZM39.9453 162.716C39.9453 161.106 38.9933 160.028 37.4113 160.028C36.5573 160.028 35.8153 160.35 35.3113 160.91V160.182H34.3033V167H35.3813V162.842C35.3813 161.778 36.1233 161.022 37.1733 161.022C38.2233 161.022 38.8673 161.764 38.8673 162.842V167H39.9453V162.716ZM47.763 160.182V161.274C47.245 160.49 46.251 160.028 45.173 160.028C43.255 160.028 41.827 161.526 41.827 163.486C41.827 165.46 43.255 166.93 45.173 166.93C46.195 166.93 47.161 166.51 47.707 165.796V166.398C47.707 167.868 46.853 168.68 45.439 168.68C44.417 168.68 43.661 168.274 42.891 167.602L42.261 168.358C43.031 169.128 44.137 169.674 45.467 169.674C47.483 169.674 48.785 168.414 48.785 166.342V160.182H47.763ZM47.721 163.486C47.721 165.138 46.587 165.936 45.341 165.936C43.955 165.936 42.919 164.942 42.919 163.5C42.919 162.072 43.955 161.05 45.341 161.05C46.573 161.05 47.721 161.848 47.721 163.486ZM60.1809 162.8C60.1809 161.008 59.1309 160.028 57.5209 160.028C56.3869 160.028 55.3649 160.518 54.7489 161.526L55.4629 162.114C56.0229 161.386 56.6249 161.022 57.4509 161.022C58.4729 161.022 59.1029 161.624 59.1029 162.744V163.332H56.9469C55.4769 163.332 54.4969 164.074 54.4969 165.236C54.4969 166.412 55.4769 167.154 56.8769 167.154C57.8709 167.154 58.6689 166.79 59.1729 166.118V167H60.1809V162.8ZM59.1029 164.382C59.1029 165.432 58.1369 166.258 57.0169 166.258C56.2189 166.258 55.6029 165.866 55.6029 165.18C55.6029 164.55 56.1209 164.214 57.0729 164.214H59.1029V164.382ZM75.1653 160.182L73.2333 165.194L70.9373 160.028H70.5313L68.2633 165.236L66.2893 160.182H65.1413L68.0393 167.154H68.4173L70.7273 162.002L73.0513 167.154H73.4433L76.3133 160.182H75.1653ZM77.8755 167H78.9535V160.182H77.8755V167ZM77.6095 157.578C77.6095 158.026 77.9735 158.362 78.4215 158.362C78.8695 158.362 79.2195 158.026 79.2195 157.578C79.2195 157.144 78.8555 156.794 78.4215 156.794C77.9735 156.794 77.6095 157.144 77.6095 157.578ZM86.7249 156.5V161.19C86.1789 160.462 85.2269 160.028 84.2049 160.028C82.2869 160.028 80.8309 161.596 80.8309 163.598C80.8309 165.6 82.2869 167.154 84.2049 167.154C85.2689 167.154 86.2629 166.692 86.7809 165.922V167H87.8029V156.5H86.7249ZM86.7389 163.598C86.7389 165.32 85.5909 166.16 84.3589 166.16C82.9729 166.16 81.9369 165.054 81.9369 163.584C81.9369 162.114 82.9729 161.022 84.3589 161.022C85.5909 161.022 86.7389 161.862 86.7389 163.598ZM96.1866 163.92C96.2426 163.64 96.2706 163.374 96.2706 163.108C96.2706 161.302 94.9266 160.028 93.1626 160.028C91.2166 160.028 89.6766 161.624 89.6766 163.598C89.6766 165.6 91.2586 167.154 93.2886 167.154C94.3666 167.154 95.3046 166.706 96.0186 165.964L95.3886 165.236C94.7726 165.852 94.0726 166.16 93.3026 166.16C91.9586 166.16 90.9226 165.264 90.7966 163.92H96.1866ZM90.8386 162.968C91.0766 161.792 92.0006 161.008 93.1346 161.008C94.2686 161.008 95.1506 161.75 95.1646 162.968H90.8386ZM105.714 160.182C105.532 160.14 105.364 160.126 105.21 160.126C104.384 160.126 103.586 160.49 103.096 161.148V160.182H102.088V167H103.166V163.136C103.166 161.876 104.16 161.134 105.308 161.134H105.714V160.182ZM112.134 162.8C112.134 161.008 111.084 160.028 109.474 160.028C108.34 160.028 107.318 160.518 106.702 161.526L107.416 162.114C107.976 161.386 108.578 161.022 109.404 161.022C110.426 161.022 111.056 161.624 111.056 162.744V163.332H108.9C107.43 163.332 106.45 164.074 106.45 165.236C106.45 166.412 107.43 167.154 108.83 167.154C109.824 167.154 110.622 166.79 111.126 166.118V167H112.134V162.8ZM111.056 164.382C111.056 165.432 110.09 166.258 108.97 166.258C108.172 166.258 107.556 165.866 107.556 165.18C107.556 164.55 108.074 164.214 109.026 164.214H111.056V164.382ZM120.062 162.716C120.062 161.106 119.11 160.028 117.528 160.028C116.674 160.028 115.932 160.35 115.428 160.91V160.182H114.42V167H115.498V162.842C115.498 161.778 116.24 161.022 117.29 161.022C118.34 161.022 118.984 161.764 118.984 162.842V167H120.062V162.716ZM127.88 160.182V161.274C127.362 160.49 126.368 160.028 125.29 160.028C123.372 160.028 121.944 161.526 121.944 163.486C121.944 165.46 123.372 166.93 125.29 166.93C126.312 166.93 127.278 166.51 127.824 165.796V166.398C127.824 167.868 126.97 168.68 125.556 168.68C124.534 168.68 123.778 168.274 123.008 167.602L122.378 168.358C123.148 169.128 124.254 169.674 125.584 169.674C127.6 169.674 128.902 168.414 128.902 166.342V160.182H127.88ZM127.838 163.486C127.838 165.138 126.704 165.936 125.458 165.936C124.072 165.936 123.036 164.942 123.036 163.5C123.036 162.072 124.072 161.05 125.458 161.05C126.69 161.05 127.838 161.848 127.838 163.486ZM137.284 163.92C137.34 163.64 137.368 163.374 137.368 163.108C137.368 161.302 136.024 160.028 134.26 160.028C132.314 160.028 130.774 161.624 130.774 163.598C130.774 165.6 132.356 167.154 134.386 167.154C135.464 167.154 136.402 166.706 137.116 165.964L136.486 165.236C135.87 165.852 135.17 166.16 134.4 166.16C133.056 166.16 132.02 165.264 131.894 163.92H137.284ZM131.936 162.968C132.174 161.792 133.098 161.008 134.232 161.008C135.366 161.008 136.248 161.75 136.262 162.968H131.936ZM142.696 163.584C142.668 165.502 144.306 167.182 146.252 167.14C148.198 167.182 149.878 165.502 149.836 163.584C149.878 161.638 148.212 160 146.266 160.028C144.32 159.986 142.654 161.638 142.696 163.584ZM148.73 163.598C148.73 165.026 147.638 166.146 146.252 166.146C144.866 166.146 143.802 165.026 143.802 163.598C143.802 162.128 144.866 161.022 146.266 161.022C147.652 161.022 148.73 162.128 148.73 163.598ZM152.977 158.628C152.977 157.662 153.495 157.326 154.405 157.326C154.587 157.326 154.783 157.34 155.007 157.368V156.458C154.741 156.388 154.447 156.346 154.153 156.346C152.767 156.346 151.899 157.06 151.899 158.558V160.182H150.919V161.148H151.899V167H152.977V161.148H154.685V160.182H152.977V158.628ZM158.979 163.584C158.979 165.558 160.575 167.154 162.549 167.154C163.739 167.154 164.733 166.58 165.349 165.67L164.579 165.068C164.033 165.796 163.361 166.16 162.563 166.16C161.149 166.16 160.085 165.012 160.085 163.584C160.085 162.17 161.149 161.022 162.563 161.022C163.361 161.022 164.047 161.386 164.593 162.128L165.363 161.512C164.747 160.602 163.739 160.028 162.549 160.028C160.603 160 158.937 161.638 158.979 163.584ZM172.822 162.716C172.822 161.106 171.87 160.028 170.302 160.028C169.448 160.028 168.72 160.378 168.258 160.952V156.5H167.18V167H168.258V162.856C168.258 161.792 169 161.022 170.05 161.022C171.1 161.022 171.744 161.75 171.744 162.856V167H172.822V162.716ZM181.13 163.92C181.186 163.64 181.214 163.374 181.214 163.108C181.214 161.302 179.87 160.028 178.106 160.028C176.16 160.028 174.62 161.624 174.62 163.598C174.62 165.6 176.202 167.154 178.232 167.154C179.31 167.154 180.248 166.706 180.962 165.964L180.332 165.236C179.716 165.852 179.016 166.16 178.246 166.16C176.902 166.16 175.866 165.264 175.74 163.92H181.13ZM175.782 162.968C176.02 161.792 176.944 161.008 178.078 161.008C179.212 161.008 180.094 161.75 180.108 162.968H175.782ZM188.218 162.8C188.218 161.008 187.168 160.028 185.558 160.028C184.424 160.028 183.402 160.518 182.786 161.526L183.5 162.114C184.06 161.386 184.662 161.022 185.488 161.022C186.51 161.022 187.14 161.624 187.14 162.744V163.332H184.984C183.514 163.332 182.534 164.074 182.534 165.236C182.534 166.412 183.514 167.154 184.914 167.154C185.908 167.154 186.706 166.79 187.21 166.118V167H188.218V162.8ZM187.14 164.382C187.14 165.432 186.174 166.258 185.054 166.258C184.256 166.258 183.64 165.866 183.64 165.18C183.64 164.55 184.158 164.214 185.11 164.214H187.14V164.382ZM197.462 163.584C197.462 161.582 196.034 160.028 194.088 160.028C193.024 160.028 192.03 160.49 191.512 161.274V160.182H190.504V169.52H191.582V166.02C192.142 166.734 193.08 167.154 194.088 167.154C196.006 167.154 197.462 165.586 197.462 163.584ZM196.356 163.598C196.356 165.068 195.32 166.16 193.934 166.16C192.674 166.16 191.568 165.32 191.568 163.584C191.568 161.862 192.716 161.022 193.934 161.022C195.32 161.022 196.356 162.128 196.356 163.598ZM6.3 184.8C6.3 183.008 5.25 182.028 3.64 182.028C2.506 182.028 1.484 182.518 0.868 183.526L1.582 184.114C2.142 183.386 2.744 183.022 3.57 183.022C4.592 183.022 5.222 183.624 5.222 184.744V185.332H3.066C1.596 185.332 0.616 186.074 0.616 187.236C0.616 188.412 1.596 189.154 2.996 189.154C3.99 189.154 4.788 188.79 5.292 188.118V189H6.3V184.8ZM5.222 186.382C5.222 187.432 4.256 188.258 3.136 188.258C2.338 188.258 1.722 187.866 1.722 187.18C1.722 186.55 2.24 186.214 3.192 186.214H5.222V186.382ZM14.2285 184.716C14.2285 183.106 13.2765 182.028 11.6945 182.028C10.8405 182.028 10.0985 182.35 9.59448 182.91V182.182H8.58648V189H9.66448V184.842C9.66448 183.778 10.4065 183.022 11.4565 183.022C12.5065 183.022 13.1505 183.764 13.1505 184.842V189H14.2285V184.716ZM21.9202 178.5V183.19C21.3742 182.462 20.4222 182.028 19.4002 182.028C17.4822 182.028 16.0262 183.596 16.0262 185.598C16.0262 187.6 17.4822 189.154 19.4002 189.154C20.4642 189.154 21.4582 188.692 21.9762 187.922V189H22.9982V178.5H21.9202ZM21.9342 185.598C21.9342 187.32 20.7862 188.16 19.5542 188.16C18.1682 188.16 17.1322 187.054 17.1322 185.584C17.1322 184.114 18.1682 183.022 19.5542 183.022C20.7862 183.022 21.9342 183.862 21.9342 185.598ZM33.0097 188.09C32.6597 188.146 32.3657 188.174 32.0997 188.174C31.1617 188.174 30.6577 187.838 30.6577 186.872V183.148H32.7857V182.182H30.6577V180.32H29.5797V182.182H28.4317V183.148H29.5797V186.942C29.5797 188.44 30.4617 189.154 31.8757 189.154C32.1977 189.154 32.5757 189.098 33.0097 189V188.09ZM38.2437 182.182C38.0617 182.14 37.8937 182.126 37.7397 182.126C36.9137 182.126 36.1157 182.49 35.6257 183.148V182.182H34.6177V189H35.6957V185.136C35.6957 183.876 36.6897 183.134 37.8377 183.134H38.2437V182.182ZM45.5733 185.92C45.6293 185.64 45.6573 185.374 45.6573 185.108C45.6573 183.302 44.3133 182.028 42.5493 182.028C40.6033 182.028 39.0633 183.624 39.0633 185.598C39.0633 187.6 40.6453 189.154 42.6753 189.154C43.7533 189.154 44.6913 188.706 45.4053 187.964L44.7753 187.236C44.1593 187.852 43.4593 188.16 42.6893 188.16C41.3453 188.16 40.3093 187.264 40.1833 185.92H45.5733ZM40.2253 184.968C40.4633 183.792 41.3873 183.008 42.5213 183.008C43.6553 183.008 44.5373 183.75 44.5513 184.968H40.2253ZM53.1933 184.716C53.1933 183.106 52.2413 182.028 50.6593 182.028C49.8053 182.028 49.0633 182.35 48.5593 182.91V182.182H47.5513V189H48.6293V184.842C48.6293 183.778 49.3713 183.022 50.4213 183.022C51.4713 183.022 52.1153 183.764 52.1153 184.842V189H53.1933V184.716ZM60.885 178.5V183.19C60.339 182.462 59.387 182.028 58.365 182.028C56.447 182.028 54.991 183.596 54.991 185.598C54.991 187.6 56.447 189.154 58.365 189.154C59.429 189.154 60.423 188.692 60.941 187.922V189H61.963V178.5H60.885ZM60.899 185.598C60.899 187.32 59.751 188.16 58.519 188.16C57.133 188.16 56.097 187.054 56.097 185.584C56.097 184.114 57.133 183.022 58.519 183.022C59.751 183.022 60.899 183.862 60.899 185.598ZM69.1707 182.182L66.9167 187.614L64.6627 182.182H63.5007L66.3287 188.79L65.9647 189.602C65.6147 190.428 65.1387 190.694 64.4247 190.694C64.2287 190.694 63.9487 190.666 63.5987 190.624V191.534C63.9487 191.632 64.2987 191.674 64.6487 191.674C65.6987 191.674 66.4407 191.142 66.9587 189.952L70.3187 182.182H69.1707ZM82.7554 185.584C82.7554 183.582 81.3274 182.028 79.3814 182.028C78.3174 182.028 77.3234 182.49 76.8054 183.274V182.182H75.7974V191.52H76.8754V188.02C77.4354 188.734 78.3734 189.154 79.3814 189.154C81.2994 189.154 82.7554 187.586 82.7554 185.584ZM81.6494 185.598C81.6494 187.068 80.6134 188.16 79.2274 188.16C77.9674 188.16 76.8614 187.32 76.8614 185.584C76.8614 183.862 78.0094 183.022 79.2274 183.022C80.6134 183.022 81.6494 184.128 81.6494 185.598ZM84.6431 189H85.7211V178.5H84.6431V189ZM93.1984 184.8C93.1984 183.008 92.1484 182.028 90.5384 182.028C89.4044 182.028 88.3824 182.518 87.7664 183.526L88.4804 184.114C89.0404 183.386 89.6424 183.022 90.4684 183.022C91.4904 183.022 92.1204 183.624 92.1204 184.744V185.332H89.9644C88.4944 185.332 87.5144 186.074 87.5144 187.236C87.5144 188.412 88.4944 189.154 89.8944 189.154C90.8884 189.154 91.6864 188.79 92.1904 188.118V189H93.1984V184.8ZM92.1204 186.382C92.1204 187.432 91.1544 188.258 90.0344 188.258C89.2364 188.258 88.6204 187.866 88.6204 187.18C88.6204 186.55 89.1384 186.214 90.0904 186.214H92.1204V186.382ZM101.127 184.716C101.127 183.106 100.175 182.028 98.5929 182.028C97.7389 182.028 96.9969 182.35 96.4929 182.91V182.182H95.4849V189H96.5629V184.842C96.5629 183.778 97.3049 183.022 98.3549 183.022C99.4049 183.022 100.049 183.764 100.049 184.842V189H101.127V184.716ZM107.139 188.09C106.789 188.146 106.495 188.174 106.229 188.174C105.291 188.174 104.787 187.838 104.787 186.872V183.148H106.915V182.182H104.787V180.32H103.709V182.182H102.561V183.148H103.709V186.942C103.709 188.44 104.591 189.154 106.005 189.154C106.327 189.154 106.705 189.098 107.139 189V188.09ZM108.103 187.824C108.705 188.608 109.629 189.154 110.763 189.154C111.435 189.154 111.995 188.986 112.457 188.636C112.919 188.286 113.157 187.782 113.157 187.152C113.157 186.214 112.625 185.682 111.351 185.136L110.721 184.87C109.895 184.52 109.615 184.31 109.615 183.876C109.615 183.33 110.077 183.022 110.749 183.022C111.379 183.022 111.967 183.316 112.429 183.778L113.087 183.106C112.527 182.434 111.757 182.028 110.805 182.028C109.503 182.028 108.509 182.742 108.509 183.932C108.509 184.842 109.069 185.36 110.203 185.822L110.861 186.102C111.701 186.438 112.051 186.648 112.051 187.194C112.051 187.796 111.491 188.16 110.749 188.16C109.979 188.16 109.447 187.782 108.789 187.11L108.103 187.824ZM114.992 188.272C114.992 188.776 115.384 189.154 115.874 189.154C116.364 189.154 116.756 188.776 116.756 188.272C116.756 187.768 116.364 187.39 115.874 187.39C115.384 187.39 114.992 187.768 114.992 188.272Z" fill="#727272"/>
<circle cx="37" cy="53" r="37" fill="#46A358" fill-opacity="0.13"/>
<g clip-path="url(#clip0_1_483)">
<path d="M22.249 40.7766C39.0217 39.0238 55.9384 41.7144 72.67 39.29C73.4516 39.1753 73.1184 37.9918 72.3409 38.1064C55.7286 40.5104 38.9065 37.8075 22.249 39.548C21.4673 39.6299 21.4591 40.8585 22.249 40.7766Z" fill="#727272"/>
<path d="M22.0846 39.5726C20.4472 40.0804 20.6529 42.21 21.521 43.3403C22.9444 45.1913 26.141 45.2323 28.2268 45.0357C29.0125 44.962 29.0166 43.7334 28.2268 43.8071C26.8774 43.9341 25.4786 43.9218 24.1663 43.5368C23.4833 43.3362 22.7634 43.0536 22.3726 42.4147C22.171 42.083 21.7843 40.9527 22.4137 40.7602C23.1707 40.5227 22.8457 39.3351 22.0846 39.5726Z" fill="#727272"/>
<path d="M69.7821 39.675C70.6501 39.6217 71.4894 39.4743 72.3533 39.3596C73.7233 39.1753 74.4268 39.5439 74.6654 40.9773C74.8628 42.169 74.11 42.5171 73.0486 42.8529C72.5467 43.0126 72.0201 43.1109 71.5017 43.2133C70.1153 43.4836 68.7248 43.6187 67.3137 43.6679C66.5238 43.6965 66.5197 44.9251 67.3137 44.8964C69.7204 44.8104 76.4796 44.7203 76.2164 40.9322C76.1505 39.9862 75.2331 38.6798 74.3733 38.2539C73.0897 37.615 71.0903 38.3645 69.778 38.4464C68.9922 38.4955 68.9881 39.7241 69.7821 39.675Z" fill="#727272"/>
<path d="M24.055 44.7736C23.8864 47.3741 20.9243 48.8443 19.3527 50.6298C18.1186 52.0345 17.1477 53.6521 16.4442 55.3762C14.9302 59.0702 14.6422 63.2105 15.4116 67.1051C16.9954 75.095 23.0594 81.6884 30.6333 84.5182C31.3779 84.7967 31.6988 83.6091 30.9624 83.3347C23.0965 80.3943 16.9831 73.0269 16.3002 64.5783C15.9752 60.5649 16.8268 56.3878 19.0771 53.0092C20.9449 50.208 25.0547 48.4143 25.2892 44.7736C25.3386 43.9873 24.1044 43.9873 24.055 44.7736Z" fill="#727272"/>
<path d="M70.823 44.2494C70.823 47.4806 73.1803 49.5077 75.5787 51.3138C77.6398 52.8618 79.236 54.3688 80.2522 56.7973C81.1367 58.9064 81.6263 61.1834 81.7373 63.4645C82.1405 71.8557 77.2449 79.6449 69.7204 83.3102C69.0087 83.6583 69.6299 84.7189 70.3416 84.3708C77.3313 80.9677 82.2598 74.0507 82.918 66.3025C83.2513 62.3833 82.5684 58.0669 80.569 54.6309C78.368 50.8428 72.0571 49.1064 72.053 44.2494C72.0571 43.459 70.823 43.459 70.823 44.2494Z" fill="#727272"/>
<path d="M30.267 83.6172C29.4689 85.3823 30.9006 86.9058 32.6778 86.9877C34.6073 87.0819 36.6437 86.6355 38.5773 86.5536C40.8194 86.4553 43.0615 86.4512 45.3036 86.4839C53.6715 86.6109 62.0352 87.2457 70.366 86.1154C70.6499 86.0785 70.7939 85.7673 70.8185 85.5215C70.8844 84.8335 70.8268 84.3257 70.6252 83.6787C70.3907 82.9251 69.2018 83.2487 69.4362 84.0063C69.6461 84.5018 69.6954 85.0096 69.5843 85.5215C69.7366 85.325 69.8847 85.1284 70.0369 84.9277C63.5409 85.8082 56.9873 85.5871 50.4543 85.3823C47.2866 85.284 44.1147 85.1939 40.9469 85.2472C39.4988 85.2717 38.0507 85.3291 36.6026 85.4274C35.8127 85.4806 35.0269 85.5543 34.2411 85.6321C33.6611 85.6895 30.4439 86.185 31.3284 84.2274C31.6534 83.519 30.592 82.8965 30.267 83.6172Z" fill="#727272"/>
<path d="M22.0803 51.2237C17.0531 57.3789 16.6622 65.9708 21.1753 72.5232C21.3974 72.8467 21.9322 72.5396 21.7101 72.212C17.3616 65.9011 17.6619 57.6041 22.5205 51.6537C22.7633 51.3547 22.3313 50.9165 22.0803 51.2237Z" fill="#727272"/>
<path d="M22.4136 74.8042C22.8167 75.3858 23.2775 75.9222 23.7918 76.4096C24.0797 76.6799 24.5158 76.2499 24.2278 75.9755C23.7506 75.525 23.3228 75.0336 22.9443 74.4971C22.7221 74.1736 22.1873 74.4766 22.4136 74.8042Z" fill="#727272"/>
<path d="M25.8652 78.3385C26.2643 78.3385 26.2643 77.7242 25.8652 77.7242C25.4662 77.7242 25.4662 78.3385 25.8652 78.3385Z" fill="#727272"/>
<path d="M69.6297 44.2822C69.3129 45.4616 69.0414 46.6492 69.5062 47.8287C69.9382 48.9221 70.8145 49.9091 71.5591 50.8141C73.3446 52.9764 76.9978 55.1592 77.1706 58.1734C77.1912 58.5665 77.8083 58.5706 77.7877 58.1734C77.6602 55.9169 75.9899 54.4712 74.4512 53.0051C73.4598 52.0591 72.5259 51.0558 71.6702 49.9828C71.0942 49.2579 70.4442 48.4921 70.111 47.6198C69.7037 46.5591 69.9382 45.5148 70.2221 44.4501C70.3249 44.0651 69.7284 43.9013 69.6297 44.2822Z" fill="#727272"/>
<path d="M77.438 59.5986C77.5244 60.3849 77.6108 61.1711 77.6972 61.9574C77.7383 62.3465 78.3595 62.3506 78.3143 61.9574C78.2279 61.1711 78.1415 60.3849 78.0551 59.5986C78.014 59.2095 77.3969 59.2054 77.438 59.5986Z" fill="#727272"/>
<path d="M77.4956 63.575C77.5409 63.8044 77.5039 64.0214 77.4175 64.2344C77.3557 64.39 77.4874 64.5702 77.6314 64.6111C77.8083 64.6603 77.9482 64.5497 78.0099 64.3982C78.1374 64.0788 78.1539 63.747 78.088 63.4112C78.0181 63.0263 77.4216 63.1901 77.4956 63.575Z" fill="#727272"/>
<path d="M50.7423 59.0824C52.2151 56.2977 54.9879 54.4753 58.2091 54.635C62.0434 54.8234 66.0751 58.1446 63.3887 62.0679C61.813 64.3654 58.9826 65.8519 56.8968 67.662C54.5806 69.6728 52.4619 71.8884 50.5078 74.2554C50.0059 74.8615 50.8739 75.7338 51.3799 75.1236C54.3585 71.5157 57.7278 68.4647 61.4304 65.6144C63.9029 63.706 66.6387 60.8106 65.1371 57.4566C63.8947 54.68 60.4636 53.3163 57.5715 53.3982C54.1651 53.4965 51.2442 55.495 49.6726 58.46C49.3065 59.1603 50.372 59.7827 50.7423 59.0824Z" fill="#727272"/>
<path d="M50.4504 58.1283C47.8133 55.1756 44.5222 52.1328 40.2518 52.354C37.0841 52.5178 34.3565 54.9094 33.8999 58.0587C33.3362 61.896 36.216 65.2623 39.0218 67.486C42.4693 70.2176 47.6693 71.1636 50.2488 74.8657C50.6972 75.5128 51.7669 74.8985 51.3143 74.2473C49.7058 71.9376 47.3649 70.7499 44.8801 69.5541C41.7205 68.0348 38.6063 66.155 36.5739 63.2228C34.3071 59.9589 34.6815 54.9667 39.0752 53.7709C43.3744 52.6038 46.9947 56.1093 49.5741 58.9965C50.1048 59.5903 50.977 58.718 50.4504 58.1283Z" fill="#727272"/>
</g>
<g clip-path="url(#clip1_1_483)">
<path d="M46.472 12.629C45.2831 14.782 43.4689 16.507 41.1405 17.4C40.2314 17.7507 39.0343 17.7303 39.1536 16.4866C39.2276 15.7118 40.0668 15.039 40.6757 14.676C41.7123 14.0562 43.0411 13.8523 44.1559 13.3711C44.8799 13.0571 44.2547 12.001 43.5347 12.315C41.5437 13.1754 39.3634 13.3793 38.2321 15.4671C37.6274 16.5844 37.4299 18.1381 38.7916 18.7742C40.2684 19.4634 42.3006 18.3501 43.5265 17.5672C45.2296 16.4825 46.5666 15.0022 47.5333 13.2447C47.92 12.5556 46.8546 11.9357 46.472 12.629Z" fill="#46A358"/>
<path d="M43.8966 12.1191C42.3992 12.2822 40.9141 12.2904 39.429 12.0131C38.886 11.9111 38.3471 11.7725 37.8205 11.6053C37.3763 11.4748 36.9484 11.3158 36.5247 11.1241C35.8953 10.333 35.957 9.89262 36.7181 9.79476C38.9477 8.09024 42.4321 9.88039 44.6206 10.7082C45.3652 10.9895 45.6861 9.80699 44.9497 9.5297C43.045 8.80793 40.9552 7.72324 38.8613 7.95567C37.6601 8.08616 34.8915 8.60404 34.5707 10.1006C33.8302 13.5667 42.1071 13.5422 43.8966 13.3465C44.6782 13.2568 44.6864 12.0335 43.8966 12.1191Z" fill="#46A358"/>
<path d="M45.353 9.55004C43.4812 8.07796 41.8192 5.78624 41.9097 3.30286C41.9509 2.19778 42.6584 1.72884 43.6828 2.22633C44.2463 2.49954 44.6372 3.19684 44.9457 3.72288C45.6615 4.95437 45.9618 6.36121 46.2251 7.74358C46.3732 8.51428 47.5621 8.18806 47.414 7.41736C47.019 5.35399 46.4554 3.205 44.9169 1.66359C44.0078 0.754243 42.4939 -0.289671 41.4243 0.933666C38.9231 3.7922 42.1977 8.61623 44.4808 10.4145C45.0979 10.8998 45.9782 10.0394 45.353 9.55004Z" fill="#46A358"/>
<path d="M47.3849 7.75594C47.6564 5.79044 48.5203 2.05111 50.7993 1.41497C52.9179 0.827768 52.7081 4.20418 52.1157 5.32149C51.5192 6.44697 50.3468 7.50311 49.4952 8.44508C48.9687 9.02821 49.8367 9.89678 50.3673 9.30958C51.5891 7.95575 53.4156 6.40211 53.6789 4.49778C53.8846 3.02162 53.7735 0.791068 52.1321 0.138621C50.6347 -0.456736 49.1538 0.89709 48.3022 1.96139C47.0475 3.52727 46.4634 5.4683 46.1919 7.42156C46.0849 8.20042 47.2738 8.53479 47.3849 7.75594Z" fill="#46A358"/>
<path d="M50.4538 9.46465C51.8895 8.27393 54.5552 7.44614 56.3077 8.5186C58.5785 9.91321 55.3615 10.7492 54.3002 10.8185C53.1648 10.896 52.0294 10.8266 50.9022 10.6961C50.1165 10.6064 50.1206 11.8298 50.9022 11.9195C52.7452 12.1315 55.234 12.4047 56.9494 11.4995C58.0149 10.9367 58.7801 9.57475 58.126 8.42889C57.3937 7.14439 55.3327 6.83447 53.9957 6.87117C52.3379 6.92011 50.8446 7.55624 49.5858 8.60016C48.9728 9.1058 49.8491 9.9703 50.4538 9.46465Z" fill="#46A358"/>
<path d="M50.5853 11.8786C51.8565 12.3434 53.1194 13.0448 53.8434 14.2274C54.7485 15.7117 54.769 18.4438 52.1362 17.9341C49.8202 17.4855 48.1459 15.047 47.6728 12.9306C47.5 12.164 46.3111 12.4861 46.4839 13.2568C46.9035 15.1408 47.9525 16.8045 49.524 17.9585C50.7581 18.8679 52.9261 19.9526 54.3782 18.9209C55.8715 17.8607 55.8715 15.6668 55.1969 14.158C54.3988 12.3801 52.6998 11.3484 50.9227 10.696C50.1657 10.4269 49.8449 11.6094 50.5853 11.8786Z" fill="#46A358"/>
<path d="M38.1043 15.2469C34.5007 17.4 31.8432 19.7977 31.2137 24.112C30.5267 28.7974 31.6251 33.6949 32.6289 38.2579C32.7975 39.0286 33.9864 38.7024 33.8178 37.9317C32.9292 33.8947 32.02 29.7109 32.2957 25.5556C32.596 21.0252 34.9655 18.5499 38.7214 16.3072C39.4043 15.8994 38.7872 14.8391 38.1043 15.2469Z" fill="#46A358"/>
<path d="M54.008 13.8644C59.0474 14.2559 62.614 18.2684 63.9674 22.8641C65.4402 27.8675 64.6174 33.1361 63.8152 38.1762C63.6918 38.9469 64.8807 39.2772 65.0041 38.5024C65.9421 32.5896 66.8841 26.3098 64.4611 20.6091C62.6263 16.2907 58.817 13.0162 54.008 12.6411C53.214 12.5799 53.2181 13.8032 54.008 13.8644Z" fill="#46A358"/>
<path d="M39.3263 17.7832C33.2996 22.1302 35.2536 31.9576 36.4713 38.0662C36.6235 38.8369 37.8165 38.5107 37.6602 37.74C37.0226 34.543 36.4302 31.3093 36.4919 28.0389C36.5536 24.8582 37.1583 20.8497 39.9475 18.8394C40.5851 18.3786 39.9721 17.3184 39.3263 17.7832Z" fill="#46A358"/>
<path d="M46.0931 13.8277C43.8511 17.249 42.4031 21.074 41.8765 25.1273C41.6009 27.2518 41.5803 29.4049 41.8354 31.5335C42.111 33.8578 42.8638 36.0925 43.1435 38.4168C43.234 39.1875 44.4723 39.1997 44.3777 38.4168C43.8922 34.3594 42.6417 30.6242 42.9708 26.473C43.3122 22.1627 44.7932 18.0605 47.1627 14.4435C47.5905 13.7829 46.5251 13.1712 46.0931 13.8277Z" fill="#46A358"/>
<path d="M49.1088 17.6079C50.9477 20.6173 51.3344 24.0223 51.6552 27.4599C51.9885 31.0361 52.26 34.6164 52.4903 38.2008C52.5397 38.9837 53.7738 38.9878 53.7245 38.2008C53.4653 34.1434 53.1732 30.086 52.7536 26.0408C52.4245 22.8642 51.8692 19.7528 50.1743 16.9881C49.7629 16.3193 48.6933 16.931 49.1088 17.6079Z" fill="#46A358"/>
<path d="M54.724 18.1788C59.319 23.9081 59.4713 31.2237 59.3067 38.2049C59.2903 38.9919 60.5244 38.9919 60.5408 38.2049C60.7136 30.8404 60.4174 23.3291 55.5961 17.3143C55.1024 16.6986 54.2344 17.5712 54.724 18.1788Z" fill="#46A358"/>
<path d="M46.9532 19.6713C46.8833 19.9445 46.8174 20.2136 46.7475 20.4868C46.6529 20.8701 47.2453 21.0333 47.344 20.6499C47.4139 20.3767 47.4798 20.1076 47.5497 19.8344C47.6443 19.4551 47.0519 19.292 46.9532 19.6713Z" fill="#46A358"/>
<path d="M48.2861 21.7957C48.2861 22.1015 48.2861 22.4074 48.2861 22.7132C48.2861 23.1087 48.9032 23.1087 48.9032 22.7132C48.9032 22.4074 48.9032 22.1015 48.9032 21.7957C48.9032 21.4001 48.2861 21.4001 48.2861 21.7957Z" fill="#46A358"/>
<path d="M45.3074 23.7328C45.2745 24.1732 45.2375 24.6177 45.2046 25.0581C45.1758 25.4496 45.7929 25.4496 45.8217 25.0581C45.8546 24.6177 45.8916 24.1732 45.9245 23.7328C45.9533 23.3413 45.3362 23.3413 45.3074 23.7328Z" fill="#46A358"/>
<path d="M49.3145 25.8735C49.3145 26.2813 49.3145 26.6891 49.3145 27.0968C49.3145 27.4924 49.9315 27.4924 49.9315 27.0968C49.9315 26.6891 49.9315 26.2813 49.9315 25.8735C49.9315 25.478 49.3145 25.478 49.3145 25.8735Z" fill="#46A358"/>
<path d="M46.9487 28.1163C46.9487 28.5567 46.9487 29.0012 46.9487 29.4416C46.9487 29.8371 47.5658 29.8371 47.5658 29.4416C47.5658 29.0012 47.5658 28.5567 47.5658 28.1163C47.5658 27.7208 46.9487 27.7208 46.9487 28.1163Z" fill="#46A358"/>
<path d="M45.6118 32.6018C45.6118 33.2135 45.6118 33.8252 45.6118 34.4368C45.6118 34.8324 46.2289 34.8324 46.2289 34.4368C46.2289 33.8252 46.2289 33.2135 46.2289 32.6018C46.2289 32.2063 45.6118 32.2063 45.6118 32.6018Z" fill="#46A358"/>
<path d="M43.7816 28.6016C43.8515 29.0094 43.9256 29.4172 43.9955 29.8249C44.0613 30.2123 44.6578 30.0492 44.592 29.6618C44.522 29.254 44.448 28.8463 44.3781 28.4385C44.3081 28.0552 43.7116 28.2183 43.7816 28.6016Z" fill="#46A358"/>
<path d="M48.4996 34.6408C48.5325 35.0486 48.5696 35.4564 48.6025 35.8642C48.6354 36.2556 49.2525 36.2556 49.2196 35.8642C49.1866 35.4564 49.1496 35.0486 49.1167 34.6408C49.0838 34.2494 48.4626 34.2453 48.4996 34.6408Z" fill="#46A358"/>
<path d="M50.347 30.0533C50.3799 30.4611 50.4169 30.8689 50.4498 31.2766C50.4827 31.664 51.0998 31.6681 51.0669 31.2766C51.034 30.8689 50.9969 30.4611 50.964 30.0533C50.9311 29.6618 50.3141 29.6578 50.347 30.0533Z" fill="#46A358"/>
<path d="M57.4306 16.4009C57.9078 16.8128 58.385 17.2247 58.8622 17.6324C59.1625 17.8893 59.5986 17.4571 59.2982 17.2002C58.821 16.7883 58.3439 16.3765 57.8667 15.9687C57.5705 15.7118 57.1303 16.14 57.4306 16.4009Z" fill="#46A358"/>
<path d="M57.6901 19.8058C57.9575 20.2829 58.229 20.764 58.4964 21.2411C58.6898 21.5837 59.2246 21.2779 59.0312 20.9312C58.7638 20.4541 58.4923 19.973 58.2249 19.4959C58.0275 19.1533 57.4968 19.4632 57.6901 19.8058Z" fill="#46A358"/>
<path d="M60.1622 20.0056C60.4666 20.4174 60.771 20.8293 61.0754 21.2371C61.3058 21.5511 61.8447 21.2452 61.6102 20.9272C61.3058 20.5153 61.0014 20.1034 60.697 19.6957C60.4625 19.3858 59.9277 19.6875 60.1622 20.0056Z" fill="#46A358"/>
<path d="M61.6846 25.3394C61.7874 26.053 61.8944 26.7666 61.9972 27.4802C62.0548 27.8676 62.6472 27.7045 62.5937 27.3171C62.4909 26.6035 62.3839 25.8899 62.2811 25.1763C62.2194 24.7889 61.627 24.9561 61.6846 25.3394Z" fill="#46A358"/>
<path d="M59.6114 23.5085C59.7142 23.8469 59.8171 24.1895 59.9199 24.5279C60.0351 24.9031 60.6275 24.744 60.5164 24.3648C60.4136 24.0263 60.3107 23.6838 60.2079 23.3453C60.0927 22.9702 59.4962 23.1292 59.6114 23.5085Z" fill="#46A358"/>
<path d="M62.8816 31.1746C62.9268 31.6599 62.9186 32.1452 62.8404 32.6263C62.7787 33.0096 63.3711 33.1768 63.4369 32.7894C63.5233 32.2512 63.5521 31.717 63.5028 31.1746C63.4616 30.7873 62.8445 30.7832 62.8816 31.1746Z" fill="#46A358"/>
<path d="M61.4502 33.1115C61.4502 33.4867 61.4502 33.8578 61.4502 34.2329C61.4502 34.6285 62.0673 34.6285 62.0673 34.2329C62.0673 33.8578 62.0673 33.4867 62.0673 33.1115C62.0673 32.716 61.4502 32.716 61.4502 33.1115Z" fill="#46A358"/>
<path d="M62.0879 22.8928C62.2565 23.3006 62.4293 23.7084 62.598 24.1162C62.6638 24.2711 62.8037 24.3771 62.9764 24.3282C63.1204 24.2915 63.2562 24.1039 63.1904 23.953C63.0217 23.5453 62.8489 23.1375 62.6803 22.7297C62.6144 22.5747 62.4746 22.4687 62.3018 22.5177C62.1578 22.5544 62.0262 22.7419 62.0879 22.8928Z" fill="#46A358"/>
<path d="M60.9355 29.9513C60.9355 30.1878 60.9355 30.4284 60.9355 30.6649C60.9355 31.0605 61.5526 31.0605 61.5526 30.6649C61.5526 30.4284 61.5526 30.1878 61.5526 29.9513C61.5526 29.5558 60.9355 29.5558 60.9355 29.9513Z" fill="#46A358"/>
<path d="M62.1699 36.7816C62.1534 37.0712 62.0835 37.3485 61.9765 37.6176C61.9148 37.7725 62.0465 37.952 62.1905 37.9927C62.3673 38.0417 62.5072 37.9316 62.5689 37.7807C62.7006 37.4586 62.7664 37.1283 62.787 36.7816C62.8116 36.3861 62.1946 36.3902 62.1699 36.7816Z" fill="#46A358"/>
<path d="M36.2902 18.8842C36.0804 19.186 35.8706 19.4877 35.6567 19.7895C35.4305 20.1157 35.9653 20.4216 36.1915 20.0994C36.4013 19.7976 36.6111 19.4959 36.825 19.1941C37.0472 18.8679 36.5124 18.5621 36.2902 18.8842Z" fill="#46A358"/>
<path d="M34.5295 23.3452C34.4513 23.7163 34.3772 24.0874 34.2991 24.4625C34.2209 24.8458 34.8133 25.013 34.8956 24.6256C34.9737 24.2546 35.0478 23.8835 35.1259 23.5083C35.2041 23.125 34.6076 22.9619 34.5295 23.3452Z" fill="#46A358"/>
<path d="M34.332 21.1229C34.007 21.5511 33.7643 22.0241 33.5997 22.5338C33.4763 22.909 34.0728 23.068 34.1962 22.6969C34.3484 22.2361 34.5747 21.8202 34.8668 21.4328C35.1054 21.1148 34.5665 20.813 34.332 21.1229Z" fill="#46A358"/>
<path d="M33.0773 25.1802C33.0033 25.69 32.9251 26.1956 32.8511 26.7053C32.7935 27.0886 33.39 27.2558 33.4476 26.8684C33.5216 26.3587 33.5998 25.8531 33.6738 25.3434C33.7314 24.956 33.1349 24.7888 33.0773 25.1802Z" fill="#46A358"/>
<path d="M33.6944 28.1163C33.6409 28.626 33.6739 29.1276 33.7726 29.6292C33.8466 30.0165 34.4431 29.8534 34.3691 29.466C34.2827 29.0175 34.2662 28.5689 34.3156 28.1163C34.3485 27.7248 33.7314 27.7289 33.6944 28.1163Z" fill="#46A358"/>
<path d="M34.2003 31.9903C34.2332 32.2962 34.2702 32.602 34.3032 32.9078C34.3196 33.071 34.4307 33.2137 34.6117 33.2137C34.7639 33.2137 34.9408 33.075 34.9202 32.9078C34.8873 32.602 34.8503 32.2962 34.8174 31.9903C34.8009 31.8272 34.6898 31.6845 34.5088 31.6845C34.3566 31.6845 34.1839 31.8232 34.2003 31.9903Z" fill="#46A358"/>
<path d="M33.2008 34.2902C33.4394 34.6776 33.6122 35.0854 33.7192 35.5298C33.8138 35.9132 34.4062 35.7501 34.3156 35.3667C34.1964 34.8774 33.9989 34.4125 33.7356 33.9803C33.5258 33.6459 32.9951 33.9558 33.2008 34.2902Z" fill="#46A358"/>
<path d="M34.5171 36.8632C34.587 37.0345 34.6528 37.2017 34.7228 37.373C34.7845 37.5238 34.9284 37.6339 35.1012 37.585C35.2493 37.5442 35.381 37.3648 35.3151 37.2099C35.2452 37.0386 35.1794 36.8714 35.1095 36.7001C35.0477 36.5492 34.9038 36.4391 34.731 36.4881C34.587 36.5248 34.4554 36.7083 34.5171 36.8632Z" fill="#46A358"/>
</g>
<defs>
<clipPath id="clip0_1_483">
<rect width="68" height="49" fill="white" transform="translate(15 38)"/>
</clipPath>
<clipPath id="clip1_1_483">
<rect width="35" height="39" fill="white" transform="translate(31)"/>
</clipPath>
</defs>
</svg>
