<svg width="204" height="195" viewBox="0 0 204 195" fill="none" xmlns="http://www.w3.org/2000/svg">
<path d="M14.62 105.78L12.121 112.376L9.18 105.576H8.415L5.474 112.41L2.975 105.78H0.425L4.913 117.204H5.661L8.806 110.166L11.934 117.204H12.682L17.17 105.78H14.62ZM25.0446 112.002C25.0446 109.673 23.6336 108.398 21.4406 108.398C19.9616 108.398 18.7376 108.976 17.7686 110.132L18.9586 111.543C19.7066 110.744 20.3186 110.387 21.1856 110.387C22.2056 110.387 22.7496 110.931 22.7496 111.866V112.24H20.6416C18.6866 112.24 17.4626 113.175 17.4626 114.688C17.4626 116.167 18.5846 117.204 20.3696 117.204C21.4406 117.204 22.3246 116.813 22.9366 116.184V117H25.0446V112.002ZM22.7496 113.855C22.7496 114.824 21.9846 115.521 20.9816 115.521C20.2506 115.521 19.7746 115.164 19.7746 114.603C19.7746 114.042 20.1996 113.753 20.9476 113.753H22.7496V113.855ZM32.6593 115.079C32.0643 115.13 31.7073 115.147 31.5713 115.147C30.4833 115.147 30.0073 114.79 30.0073 113.838V110.523H32.3873V108.585H30.0073V106.46H27.7123V108.585H26.3863V110.523H27.7123V114.042C27.7123 116.15 28.9533 117.204 31.0783 117.204C31.5883 117.204 32.1153 117.136 32.6593 117V115.079ZM41.8945 113.566C41.9965 113.141 42.0475 112.716 42.0475 112.308C42.0475 110.115 40.4155 108.398 38.0865 108.398C35.6555 108.347 33.6325 110.37 33.6835 112.801C33.6325 115.232 35.6895 117.255 38.2905 117.204C39.5315 117.204 40.6535 116.779 41.6565 115.946L40.7045 114.382C39.9735 114.943 39.1915 115.232 38.3585 115.232C37.1345 115.232 36.2675 114.637 35.9955 113.566H41.8945ZM35.9955 111.951C36.2505 110.914 37.0325 110.251 38.0015 110.251C39.0045 110.251 39.8035 110.914 39.8205 111.951H35.9955ZM49.0062 108.585C48.7852 108.517 48.5472 108.483 48.2582 108.483C47.3232 108.483 46.5072 108.891 45.9462 109.588V108.585H43.8382V117H46.1332V112.801C46.1332 111.356 47.0172 110.608 48.3942 110.608H49.0062V108.585ZM50.429 117H52.724V108.585H50.429V117ZM50.106 105.525C50.106 106.324 50.752 106.936 51.568 106.936C52.384 106.936 53.047 106.324 53.047 105.525C53.047 104.709 52.384 104.097 51.568 104.097C50.752 104.097 50.106 104.709 50.106 105.525ZM62.7295 111.781C62.7295 109.741 61.5225 108.398 59.5675 108.398C58.5645 108.398 57.6975 108.755 57.1025 109.35V108.585H54.9945V117H57.2895V112.087C57.2895 111.118 57.9525 110.455 58.8875 110.455C59.8225 110.455 60.4515 111.118 60.4515 112.087V117H62.7295V111.781ZM71.2798 108.585V109.639C70.6848 108.84 69.7328 108.398 68.5258 108.398C66.2308 108.398 64.4968 110.064 64.4968 112.563C64.4968 115.028 66.1968 116.745 68.5258 116.745C69.5968 116.745 70.4808 116.405 71.0928 115.742V116.201C71.0928 117.51 70.2088 118.19 68.8488 118.19C67.8288 118.19 67.0468 117.799 66.1118 117.102L64.9048 118.7C66.0778 119.737 67.4548 120.264 69.0358 120.264C71.6708 120.264 73.3878 118.802 73.3878 116.065V108.585H71.2798ZM71.1268 112.529C71.1268 113.974 70.1578 114.807 69.0018 114.807C67.7778 114.807 66.8258 113.906 66.8258 112.546C66.8258 111.186 67.7608 110.353 69.0018 110.353C70.1748 110.353 71.1268 111.084 71.1268 112.529ZM79.9351 111.39C79.8841 114.603 82.6381 117.272 85.9361 117.204C87.1091 117.204 88.1631 116.932 89.0981 116.371C90.0501 115.81 90.7811 115.062 91.2911 114.161V110.846H85.9021V112.835H88.9961V113.753C88.3671 114.62 87.3301 115.147 86.0381 115.147C83.8111 115.147 82.2981 113.566 82.2981 111.39C82.2981 109.248 83.7601 107.701 85.9021 107.701C87.1941 107.701 88.2311 108.245 89.0301 109.35L90.6621 108.007C89.5741 106.46 87.9081 105.576 85.9361 105.576C82.6211 105.525 79.8671 108.16 79.9351 111.39ZM98.2963 108.585C98.0753 108.517 97.8373 108.483 97.5483 108.483C96.6133 108.483 95.7973 108.891 95.2363 109.588V108.585H93.1283V117H95.4233V112.801C95.4233 111.356 96.3073 110.608 97.6843 110.608H98.2963V108.585ZM106.608 112.002C106.608 109.673 105.197 108.398 103.004 108.398C101.525 108.398 100.301 108.976 99.3321 110.132L100.522 111.543C101.27 110.744 101.882 110.387 102.749 110.387C103.769 110.387 104.313 110.931 104.313 111.866V112.24H102.205C100.25 112.24 99.0261 113.175 99.0261 114.688C99.0261 116.167 100.148 117.204 101.933 117.204C103.004 117.204 103.888 116.813 104.5 116.184V117H106.608V112.002ZM104.313 113.855C104.313 114.824 103.548 115.521 102.545 115.521C101.814 115.521 101.338 115.164 101.338 114.603C101.338 114.042 101.763 113.753 102.511 113.753H104.313V113.855ZM114.937 104.25V109.401C114.325 108.738 113.492 108.398 112.421 108.398C110.075 108.398 108.341 110.268 108.341 112.801C108.341 115.334 110.075 117.204 112.421 117.204C113.577 117.204 114.563 116.762 115.124 115.963V117H117.232V104.25H114.937ZM114.971 112.801C114.971 114.314 114.002 115.113 112.846 115.113C111.605 115.113 110.67 114.195 110.67 112.784C110.67 111.407 111.622 110.472 112.846 110.472C114.002 110.472 114.971 111.305 114.971 112.801ZM127.243 113.566C127.345 113.141 127.396 112.716 127.396 112.308C127.396 110.115 125.764 108.398 123.435 108.398C121.004 108.347 118.981 110.37 119.032 112.801C118.981 115.232 121.038 117.255 123.639 117.204C124.88 117.204 126.002 116.779 127.005 115.946L126.053 114.382C125.322 114.943 124.54 115.232 123.707 115.232C122.483 115.232 121.616 114.637 121.344 113.566H127.243ZM121.344 111.951C121.599 110.914 122.381 110.251 123.35 110.251C124.353 110.251 125.152 110.914 125.169 111.951H121.344ZM136.922 111.781C136.922 109.741 135.715 108.398 133.76 108.398C132.757 108.398 131.89 108.755 131.295 109.35V108.585H129.187V117H131.482V112.087C131.482 111.118 132.145 110.455 133.08 110.455C134.015 110.455 134.644 111.118 134.644 112.087V117H136.922V111.781Z" fill="#3D3D3D"/>
<path d="M13.09 134.76L10.542 141.788L7.658 134.606H7.266L4.382 141.802L1.834 134.76H0.63L4.144 144.154H4.536L7.462 136.818L10.388 144.154H10.78L14.28 134.76H13.09ZM21.292 140.92C21.348 140.64 21.376 140.374 21.376 140.108C21.376 138.302 20.032 137.028 18.268 137.028C16.322 137.028 14.782 138.624 14.782 140.598C14.782 142.6 16.364 144.154 18.394 144.154C19.472 144.154 20.41 143.706 21.124 142.964L20.494 142.236C19.878 142.852 19.178 143.16 18.408 143.16C17.064 143.16 16.028 142.264 15.902 140.92H21.292ZM15.944 139.968C16.182 138.792 17.106 138.008 18.24 138.008C19.374 138.008 20.256 138.75 20.27 139.968H15.944ZM32.3039 139.8C32.3039 138.008 31.2539 137.028 29.6439 137.028C28.5099 137.028 27.4879 137.518 26.8719 138.526L27.5859 139.114C28.1459 138.386 28.7479 138.022 29.5739 138.022C30.5959 138.022 31.2259 138.624 31.2259 139.744V140.332H29.0699C27.5999 140.332 26.6199 141.074 26.6199 142.236C26.6199 143.412 27.5999 144.154 28.9999 144.154C29.9939 144.154 30.7919 143.79 31.2959 143.118V144H32.3039V139.8ZM31.2259 141.382C31.2259 142.432 30.2599 143.258 29.1399 143.258C28.3419 143.258 27.7259 142.866 27.7259 142.18C27.7259 141.55 28.2439 141.214 29.1959 141.214H31.2259V141.382ZM38.2164 137.182C38.0344 137.14 37.8664 137.126 37.7124 137.126C36.8864 137.126 36.0884 137.49 35.5984 138.148V137.182H34.5904V144H35.6684V140.136C35.6684 138.876 36.6624 138.134 37.8104 138.134H38.2164V137.182ZM45.5459 140.92C45.6019 140.64 45.6299 140.374 45.6299 140.108C45.6299 138.302 44.2859 137.028 42.5219 137.028C40.5759 137.028 39.0359 138.624 39.0359 140.598C39.0359 142.6 40.6179 144.154 42.6479 144.154C43.7259 144.154 44.6639 143.706 45.3779 142.964L44.7479 142.236C44.1319 142.852 43.4319 143.16 42.6619 143.16C41.3179 143.16 40.2819 142.264 40.1559 140.92H45.5459ZM40.1979 139.968C40.4359 138.792 41.3599 138.008 42.4939 138.008C43.6279 138.008 44.5099 138.75 44.5239 139.968H40.1979ZM56.5578 139.8C56.5578 138.008 55.5078 137.028 53.8978 137.028C52.7638 137.028 51.7418 137.518 51.1258 138.526L51.8398 139.114C52.3998 138.386 53.0018 138.022 53.8278 138.022C54.8498 138.022 55.4798 138.624 55.4798 139.744V140.332H53.3238C51.8538 140.332 50.8738 141.074 50.8738 142.236C50.8738 143.412 51.8538 144.154 53.2538 144.154C54.2478 144.154 55.0458 143.79 55.5498 143.118V144H56.5578V139.8ZM55.4798 141.382C55.4798 142.432 54.5138 143.258 53.3938 143.258C52.5958 143.258 51.9798 142.866 51.9798 142.18C51.9798 141.55 52.4978 141.214 53.4498 141.214H55.4798V141.382ZM64.4863 139.716C64.4863 138.106 63.5343 137.028 61.9523 137.028C61.0983 137.028 60.3563 137.35 59.8523 137.91V137.182H58.8443V144H59.9223V139.842C59.9223 138.778 60.6643 138.022 61.7143 138.022C62.7643 138.022 63.4083 138.764 63.4083 139.842V144H64.4863V139.716ZM70.2078 140.584C70.1798 142.502 71.8178 144.182 73.7638 144.14C75.7098 144.182 77.3898 142.502 77.3478 140.584C77.3898 138.638 75.7238 137 73.7778 137.028C71.8318 136.986 70.1658 138.638 70.2078 140.584ZM76.2418 140.598C76.2418 142.026 75.1498 143.146 73.7638 143.146C72.3778 143.146 71.3138 142.026 71.3138 140.598C71.3138 139.128 72.3778 138.022 73.7778 138.022C75.1638 138.022 76.2418 139.128 76.2418 140.598ZM84.8847 139.716C84.8847 138.106 83.9327 137.028 82.3507 137.028C81.4967 137.028 80.7547 137.35 80.2507 137.91V137.182H79.2427V144H80.3207V139.842C80.3207 138.778 81.0627 138.022 82.1127 138.022C83.1627 138.022 83.8067 138.764 83.8067 139.842V144H84.8847V139.716ZM87.1724 144H88.2504V133.5H87.1724V144ZM90.6177 144H91.6957V137.182H90.6177V144ZM90.3517 134.578C90.3517 135.026 90.7157 135.362 91.1637 135.362C91.6117 135.362 91.9617 135.026 91.9617 134.578C91.9617 134.144 91.5977 133.794 91.1637 133.794C90.7157 133.794 90.3517 134.144 90.3517 134.578ZM99.705 139.716C99.705 138.106 98.753 137.028 97.171 137.028C96.317 137.028 95.575 137.35 95.071 137.91V137.182H94.063V144H95.141V139.842C95.141 138.778 95.883 138.022 96.933 138.022C97.983 138.022 98.627 138.764 98.627 139.842V144H99.705V139.716ZM108.013 140.92C108.069 140.64 108.097 140.374 108.097 140.108C108.097 138.302 106.753 137.028 104.989 137.028C103.043 137.028 101.503 138.624 101.503 140.598C101.503 142.6 103.085 144.154 105.115 144.154C106.193 144.154 107.131 143.706 107.845 142.964L107.215 142.236C106.599 142.852 105.899 143.16 105.129 143.16C103.785 143.16 102.749 142.264 102.623 140.92H108.013ZM102.665 139.968C102.903 138.792 103.827 138.008 104.961 138.008C106.095 138.008 106.977 138.75 106.991 139.968H102.665ZM120.873 140.584C120.873 138.582 119.445 137.028 117.499 137.028C116.435 137.028 115.441 137.49 114.923 138.274V137.182H113.915V146.52H114.993V143.02C115.553 143.734 116.491 144.154 117.499 144.154C119.417 144.154 120.873 142.586 120.873 140.584ZM119.767 140.598C119.767 142.068 118.731 143.16 117.345 143.16C116.085 143.16 114.979 142.32 114.979 140.584C114.979 138.862 116.127 138.022 117.345 138.022C118.731 138.022 119.767 139.128 119.767 140.598ZM122.76 144H123.838V133.5H122.76V144ZM131.316 139.8C131.316 138.008 130.266 137.028 128.656 137.028C127.522 137.028 126.5 137.518 125.884 138.526L126.598 139.114C127.158 138.386 127.76 138.022 128.586 138.022C129.608 138.022 130.238 138.624 130.238 139.744V140.332H128.082C126.612 140.332 125.632 141.074 125.632 142.236C125.632 143.412 126.612 144.154 128.012 144.154C129.006 144.154 129.804 143.79 130.308 143.118V144H131.316V139.8ZM130.238 141.382C130.238 142.432 129.272 143.258 128.152 143.258C127.354 143.258 126.738 142.866 126.738 142.18C126.738 141.55 127.256 141.214 128.208 141.214H130.238V141.382ZM139.244 139.716C139.244 138.106 138.292 137.028 136.71 137.028C135.856 137.028 135.114 137.35 134.61 137.91V137.182H133.602V144H134.68V139.842C134.68 138.778 135.422 138.022 136.472 138.022C137.522 138.022 138.166 138.764 138.166 139.842V144H139.244V139.716ZM145.256 143.09C144.906 143.146 144.612 143.174 144.346 143.174C143.408 143.174 142.904 142.838 142.904 141.872V138.148H145.032V137.182H142.904V135.32H141.826V137.182H140.678V138.148H141.826V141.942C141.826 143.44 142.708 144.154 144.122 144.154C144.444 144.154 144.822 144.098 145.256 144V143.09ZM150.144 142.824C150.746 143.608 151.67 144.154 152.804 144.154C153.476 144.154 154.036 143.986 154.498 143.636C154.96 143.286 155.198 142.782 155.198 142.152C155.198 141.214 154.666 140.682 153.392 140.136L152.762 139.87C151.936 139.52 151.656 139.31 151.656 138.876C151.656 138.33 152.118 138.022 152.79 138.022C153.42 138.022 154.008 138.316 154.47 138.778L155.128 138.106C154.568 137.434 153.798 137.028 152.846 137.028C151.544 137.028 150.55 137.742 150.55 138.932C150.55 139.842 151.11 140.36 152.244 140.822L152.902 141.102C153.742 141.438 154.092 141.648 154.092 142.194C154.092 142.796 153.532 143.16 152.79 143.16C152.02 143.16 151.488 142.782 150.83 142.11L150.144 142.824ZM162.787 139.716C162.787 138.106 161.835 137.028 160.267 137.028C159.413 137.028 158.685 137.378 158.223 137.952V133.5H157.145V144H158.223V139.856C158.223 138.792 158.965 138.022 160.015 138.022C161.065 138.022 161.709 138.75 161.709 139.856V144H162.787V139.716ZM164.585 140.584C164.557 142.502 166.195 144.182 168.141 144.14C170.087 144.182 171.767 142.502 171.725 140.584C171.767 138.638 170.101 137 168.155 137.028C166.209 136.986 164.543 138.638 164.585 140.584ZM170.619 140.598C170.619 142.026 169.527 143.146 168.141 143.146C166.755 143.146 165.691 142.026 165.691 140.598C165.691 139.128 166.755 138.022 168.155 138.022C169.541 138.022 170.619 139.128 170.619 140.598ZM180.578 140.584C180.578 138.582 179.15 137.028 177.204 137.028C176.14 137.028 175.146 137.49 174.628 138.274V137.182H173.62V146.52H174.698V143.02C175.258 143.734 176.196 144.154 177.204 144.154C179.122 144.154 180.578 142.586 180.578 140.584ZM179.472 140.598C179.472 142.068 178.436 143.16 177.05 143.16C175.79 143.16 174.684 142.32 174.684 140.584C174.684 138.862 175.832 138.022 177.05 138.022C178.436 138.022 179.472 139.128 179.472 140.598ZM0.7 162.584C0.672 164.502 2.31 166.182 4.256 166.14C6.202 166.182 7.882 164.502 7.84 162.584C7.882 160.638 6.216 159 4.27 159.028C2.324 158.986 0.658 160.638 0.7 162.584ZM6.734 162.598C6.734 164.026 5.642 165.146 4.256 165.146C2.87 165.146 1.806 164.026 1.806 162.598C1.806 161.128 2.87 160.022 4.27 160.022C5.656 160.022 6.734 161.128 6.734 162.598ZM10.9809 157.628C10.9809 156.662 11.4989 156.326 12.4089 156.326C12.5909 156.326 12.7869 156.34 13.0109 156.368V155.458C12.7449 155.388 12.4509 155.346 12.1569 155.346C10.7709 155.346 9.90292 156.06 9.90292 157.558V159.182H8.92292V160.148H9.90292V166H10.9809V160.148H12.6889V159.182H10.9809V157.628ZM14.7954 157.628C14.7954 156.662 15.3134 156.326 16.2234 156.326C16.4054 156.326 16.6014 156.34 16.8254 156.368V155.458C16.5594 155.388 16.2654 155.346 15.9714 155.346C14.5854 155.346 13.7174 156.06 13.7174 157.558V159.182H12.7374V160.148H13.7174V166H14.7954V160.148H16.5034V159.182H14.7954V157.628ZM23.8077 162.92C23.8637 162.64 23.8917 162.374 23.8917 162.108C23.8917 160.302 22.5477 159.028 20.7837 159.028C18.8377 159.028 17.2977 160.624 17.2977 162.598C17.2977 164.6 18.8797 166.154 20.9097 166.154C21.9877 166.154 22.9257 165.706 23.6397 164.964L23.0097 164.236C22.3937 164.852 21.6937 165.16 20.9237 165.16C19.5797 165.16 18.5437 164.264 18.4177 162.92H23.8077ZM18.4597 161.968C18.6977 160.792 19.6217 160.008 20.7557 160.008C21.8897 160.008 22.7717 160.75 22.7857 161.968H18.4597ZM29.4117 159.182C29.2297 159.14 29.0617 159.126 28.9077 159.126C28.0817 159.126 27.2837 159.49 26.7937 160.148V159.182H25.7857V166H26.8637V162.136C26.8637 160.876 27.8577 160.134 29.0057 160.134H29.4117V159.182ZM30.858 166H31.936V159.182H30.858V166ZM30.592 156.578C30.592 157.026 30.956 157.362 31.404 157.362C31.852 157.362 32.202 157.026 32.202 156.578C32.202 156.144 31.838 155.794 31.404 155.794C30.956 155.794 30.592 156.144 30.592 156.578ZM39.9453 161.716C39.9453 160.106 38.9933 159.028 37.4113 159.028C36.5573 159.028 35.8153 159.35 35.3113 159.91V159.182H34.3033V166H35.3813V161.842C35.3813 160.778 36.1233 160.022 37.1733 160.022C38.2233 160.022 38.8673 160.764 38.8673 161.842V166H39.9453V161.716ZM47.763 159.182V160.274C47.245 159.49 46.251 159.028 45.173 159.028C43.255 159.028 41.827 160.526 41.827 162.486C41.827 164.46 43.255 165.93 45.173 165.93C46.195 165.93 47.161 165.51 47.707 164.796V165.398C47.707 166.868 46.853 167.68 45.439 167.68C44.417 167.68 43.661 167.274 42.891 166.602L42.261 167.358C43.031 168.128 44.137 168.674 45.467 168.674C47.483 168.674 48.785 167.414 48.785 165.342V159.182H47.763ZM47.721 162.486C47.721 164.138 46.587 164.936 45.341 164.936C43.955 164.936 42.919 163.942 42.919 162.5C42.919 161.072 43.955 160.05 45.341 160.05C46.573 160.05 47.721 160.848 47.721 162.486ZM60.1809 161.8C60.1809 160.008 59.1309 159.028 57.5209 159.028C56.3869 159.028 55.3649 159.518 54.7489 160.526L55.4629 161.114C56.0229 160.386 56.6249 160.022 57.4509 160.022C58.4729 160.022 59.1029 160.624 59.1029 161.744V162.332H56.9469C55.4769 162.332 54.4969 163.074 54.4969 164.236C54.4969 165.412 55.4769 166.154 56.8769 166.154C57.8709 166.154 58.6689 165.79 59.1729 165.118V166H60.1809V161.8ZM59.1029 163.382C59.1029 164.432 58.1369 165.258 57.0169 165.258C56.2189 165.258 55.6029 164.866 55.6029 164.18C55.6029 163.55 56.1209 163.214 57.0729 163.214H59.1029V163.382ZM75.1653 159.182L73.2333 164.194L70.9373 159.028H70.5313L68.2633 164.236L66.2893 159.182H65.1413L68.0393 166.154H68.4173L70.7273 161.002L73.0513 166.154H73.4433L76.3133 159.182H75.1653ZM77.8755 166H78.9535V159.182H77.8755V166ZM77.6095 156.578C77.6095 157.026 77.9735 157.362 78.4215 157.362C78.8695 157.362 79.2195 157.026 79.2195 156.578C79.2195 156.144 78.8555 155.794 78.4215 155.794C77.9735 155.794 77.6095 156.144 77.6095 156.578ZM86.7249 155.5V160.19C86.1789 159.462 85.2269 159.028 84.2049 159.028C82.2869 159.028 80.8309 160.596 80.8309 162.598C80.8309 164.6 82.2869 166.154 84.2049 166.154C85.2689 166.154 86.2629 165.692 86.7809 164.922V166H87.8029V155.5H86.7249ZM86.7389 162.598C86.7389 164.32 85.5909 165.16 84.3589 165.16C82.9729 165.16 81.9369 164.054 81.9369 162.584C81.9369 161.114 82.9729 160.022 84.3589 160.022C85.5909 160.022 86.7389 160.862 86.7389 162.598ZM96.1866 162.92C96.2426 162.64 96.2706 162.374 96.2706 162.108C96.2706 160.302 94.9266 159.028 93.1626 159.028C91.2166 159.028 89.6766 160.624 89.6766 162.598C89.6766 164.6 91.2586 166.154 93.2886 166.154C94.3666 166.154 95.3046 165.706 96.0186 164.964L95.3886 164.236C94.7726 164.852 94.0726 165.16 93.3026 165.16C91.9586 165.16 90.9226 164.264 90.7966 162.92H96.1866ZM90.8386 161.968C91.0766 160.792 92.0006 160.008 93.1346 160.008C94.2686 160.008 95.1506 160.75 95.1646 161.968H90.8386ZM105.714 159.182C105.532 159.14 105.364 159.126 105.21 159.126C104.384 159.126 103.586 159.49 103.096 160.148V159.182H102.088V166H103.166V162.136C103.166 160.876 104.16 160.134 105.308 160.134H105.714V159.182ZM112.134 161.8C112.134 160.008 111.084 159.028 109.474 159.028C108.34 159.028 107.318 159.518 106.702 160.526L107.416 161.114C107.976 160.386 108.578 160.022 109.404 160.022C110.426 160.022 111.056 160.624 111.056 161.744V162.332H108.9C107.43 162.332 106.45 163.074 106.45 164.236C106.45 165.412 107.43 166.154 108.83 166.154C109.824 166.154 110.622 165.79 111.126 165.118V166H112.134V161.8ZM111.056 163.382C111.056 164.432 110.09 165.258 108.97 165.258C108.172 165.258 107.556 164.866 107.556 164.18C107.556 163.55 108.074 163.214 109.026 163.214H111.056V163.382ZM120.062 161.716C120.062 160.106 119.11 159.028 117.528 159.028C116.674 159.028 115.932 159.35 115.428 159.91V159.182H114.42V166H115.498V161.842C115.498 160.778 116.24 160.022 117.29 160.022C118.34 160.022 118.984 160.764 118.984 161.842V166H120.062V161.716ZM127.88 159.182V160.274C127.362 159.49 126.368 159.028 125.29 159.028C123.372 159.028 121.944 160.526 121.944 162.486C121.944 164.46 123.372 165.93 125.29 165.93C126.312 165.93 127.278 165.51 127.824 164.796V165.398C127.824 166.868 126.97 167.68 125.556 167.68C124.534 167.68 123.778 167.274 123.008 166.602L122.378 167.358C123.148 168.128 124.254 168.674 125.584 168.674C127.6 168.674 128.902 167.414 128.902 165.342V159.182H127.88ZM127.838 162.486C127.838 164.138 126.704 164.936 125.458 164.936C124.072 164.936 123.036 163.942 123.036 162.5C123.036 161.072 124.072 160.05 125.458 160.05C126.69 160.05 127.838 160.848 127.838 162.486ZM137.284 162.92C137.34 162.64 137.368 162.374 137.368 162.108C137.368 160.302 136.024 159.028 134.26 159.028C132.314 159.028 130.774 160.624 130.774 162.598C130.774 164.6 132.356 166.154 134.386 166.154C135.464 166.154 136.402 165.706 137.116 164.964L136.486 164.236C135.87 164.852 135.17 165.16 134.4 165.16C133.056 165.16 132.02 164.264 131.894 162.92H137.284ZM131.936 161.968C132.174 160.792 133.098 160.008 134.232 160.008C135.366 160.008 136.248 160.75 136.262 161.968H131.936ZM142.696 162.584C142.668 164.502 144.306 166.182 146.252 166.14C148.198 166.182 149.878 164.502 149.836 162.584C149.878 160.638 148.212 159 146.266 159.028C144.32 158.986 142.654 160.638 142.696 162.584ZM148.73 162.598C148.73 164.026 147.638 165.146 146.252 165.146C144.866 165.146 143.802 164.026 143.802 162.598C143.802 161.128 144.866 160.022 146.266 160.022C147.652 160.022 148.73 161.128 148.73 162.598ZM152.977 157.628C152.977 156.662 153.495 156.326 154.405 156.326C154.587 156.326 154.783 156.34 155.007 156.368V155.458C154.741 155.388 154.447 155.346 154.153 155.346C152.767 155.346 151.899 156.06 151.899 157.558V159.182H150.919V160.148H151.899V166H152.977V160.148H154.685V159.182H152.977V157.628ZM158.979 162.584C158.979 164.558 160.575 166.154 162.549 166.154C163.739 166.154 164.733 165.58 165.349 164.67L164.579 164.068C164.033 164.796 163.361 165.16 162.563 165.16C161.149 165.16 160.085 164.012 160.085 162.584C160.085 161.17 161.149 160.022 162.563 160.022C163.361 160.022 164.047 160.386 164.593 161.128L165.363 160.512C164.747 159.602 163.739 159.028 162.549 159.028C160.603 159 158.937 160.638 158.979 162.584ZM172.822 161.716C172.822 160.106 171.87 159.028 170.302 159.028C169.448 159.028 168.72 159.378 168.258 159.952V155.5H167.18V166H168.258V161.856C168.258 160.792 169 160.022 170.05 160.022C171.1 160.022 171.744 160.75 171.744 161.856V166H172.822V161.716ZM181.13 162.92C181.186 162.64 181.214 162.374 181.214 162.108C181.214 160.302 179.87 159.028 178.106 159.028C176.16 159.028 174.62 160.624 174.62 162.598C174.62 164.6 176.202 166.154 178.232 166.154C179.31 166.154 180.248 165.706 180.962 164.964L180.332 164.236C179.716 164.852 179.016 165.16 178.246 165.16C176.902 165.16 175.866 164.264 175.74 162.92H181.13ZM175.782 161.968C176.02 160.792 176.944 160.008 178.078 160.008C179.212 160.008 180.094 160.75 180.108 161.968H175.782ZM188.218 161.8C188.218 160.008 187.168 159.028 185.558 159.028C184.424 159.028 183.402 159.518 182.786 160.526L183.5 161.114C184.06 160.386 184.662 160.022 185.488 160.022C186.51 160.022 187.14 160.624 187.14 161.744V162.332H184.984C183.514 162.332 182.534 163.074 182.534 164.236C182.534 165.412 183.514 166.154 184.914 166.154C185.908 166.154 186.706 165.79 187.21 165.118V166H188.218V161.8ZM187.14 163.382C187.14 164.432 186.174 165.258 185.054 165.258C184.256 165.258 183.64 164.866 183.64 164.18C183.64 163.55 184.158 163.214 185.11 163.214H187.14V163.382ZM197.462 162.584C197.462 160.582 196.034 159.028 194.088 159.028C193.024 159.028 192.03 159.49 191.512 160.274V159.182H190.504V168.52H191.582V165.02C192.142 165.734 193.08 166.154 194.088 166.154C196.006 166.154 197.462 164.586 197.462 162.584ZM196.356 162.598C196.356 164.068 195.32 165.16 193.934 165.16C192.674 165.16 191.568 164.32 191.568 162.584C191.568 160.862 192.716 160.022 193.934 160.022C195.32 160.022 196.356 161.128 196.356 162.598ZM6.3 183.8C6.3 182.008 5.25 181.028 3.64 181.028C2.506 181.028 1.484 181.518 0.868 182.526L1.582 183.114C2.142 182.386 2.744 182.022 3.57 182.022C4.592 182.022 5.222 182.624 5.222 183.744V184.332H3.066C1.596 184.332 0.616 185.074 0.616 186.236C0.616 187.412 1.596 188.154 2.996 188.154C3.99 188.154 4.788 187.79 5.292 187.118V188H6.3V183.8ZM5.222 185.382C5.222 186.432 4.256 187.258 3.136 187.258C2.338 187.258 1.722 186.866 1.722 186.18C1.722 185.55 2.24 185.214 3.192 185.214H5.222V185.382ZM14.2285 183.716C14.2285 182.106 13.2765 181.028 11.6945 181.028C10.8405 181.028 10.0985 181.35 9.59448 181.91V181.182H8.58648V188H9.66448V183.842C9.66448 182.778 10.4065 182.022 11.4565 182.022C12.5065 182.022 13.1505 182.764 13.1505 183.842V188H14.2285V183.716ZM21.9202 177.5V182.19C21.3742 181.462 20.4222 181.028 19.4002 181.028C17.4822 181.028 16.0262 182.596 16.0262 184.598C16.0262 186.6 17.4822 188.154 19.4002 188.154C20.4642 188.154 21.4582 187.692 21.9762 186.922V188H22.9982V177.5H21.9202ZM21.9342 184.598C21.9342 186.32 20.7862 187.16 19.5542 187.16C18.1682 187.16 17.1322 186.054 17.1322 184.584C17.1322 183.114 18.1682 182.022 19.5542 182.022C20.7862 182.022 21.9342 182.862 21.9342 184.598ZM33.0097 187.09C32.6597 187.146 32.3657 187.174 32.0997 187.174C31.1617 187.174 30.6577 186.838 30.6577 185.872V182.148H32.7857V181.182H30.6577V179.32H29.5797V181.182H28.4317V182.148H29.5797V185.942C29.5797 187.44 30.4617 188.154 31.8757 188.154C32.1977 188.154 32.5757 188.098 33.0097 188V187.09ZM38.2437 181.182C38.0617 181.14 37.8937 181.126 37.7397 181.126C36.9137 181.126 36.1157 181.49 35.6257 182.148V181.182H34.6177V188H35.6957V184.136C35.6957 182.876 36.6897 182.134 37.8377 182.134H38.2437V181.182ZM45.5733 184.92C45.6293 184.64 45.6573 184.374 45.6573 184.108C45.6573 182.302 44.3133 181.028 42.5493 181.028C40.6033 181.028 39.0633 182.624 39.0633 184.598C39.0633 186.6 40.6453 188.154 42.6753 188.154C43.7533 188.154 44.6913 187.706 45.4053 186.964L44.7753 186.236C44.1593 186.852 43.4593 187.16 42.6893 187.16C41.3453 187.16 40.3093 186.264 40.1833 184.92H45.5733ZM40.2253 183.968C40.4633 182.792 41.3873 182.008 42.5213 182.008C43.6553 182.008 44.5373 182.75 44.5513 183.968H40.2253ZM53.1933 183.716C53.1933 182.106 52.2413 181.028 50.6593 181.028C49.8053 181.028 49.0633 181.35 48.5593 181.91V181.182H47.5513V188H48.6293V183.842C48.6293 182.778 49.3713 182.022 50.4213 182.022C51.4713 182.022 52.1153 182.764 52.1153 183.842V188H53.1933V183.716ZM60.885 177.5V182.19C60.339 181.462 59.387 181.028 58.365 181.028C56.447 181.028 54.991 182.596 54.991 184.598C54.991 186.6 56.447 188.154 58.365 188.154C59.429 188.154 60.423 187.692 60.941 186.922V188H61.963V177.5H60.885ZM60.899 184.598C60.899 186.32 59.751 187.16 58.519 187.16C57.133 187.16 56.097 186.054 56.097 184.584C56.097 183.114 57.133 182.022 58.519 182.022C59.751 182.022 60.899 182.862 60.899 184.598ZM69.1707 181.182L66.9167 186.614L64.6627 181.182H63.5007L66.3287 187.79L65.9647 188.602C65.6147 189.428 65.1387 189.694 64.4247 189.694C64.2287 189.694 63.9487 189.666 63.5987 189.624V190.534C63.9487 190.632 64.2987 190.674 64.6487 190.674C65.6987 190.674 66.4407 190.142 66.9587 188.952L70.3187 181.182H69.1707ZM82.7554 184.584C82.7554 182.582 81.3274 181.028 79.3814 181.028C78.3174 181.028 77.3234 181.49 76.8054 182.274V181.182H75.7974V190.52H76.8754V187.02C77.4354 187.734 78.3734 188.154 79.3814 188.154C81.2994 188.154 82.7554 186.586 82.7554 184.584ZM81.6494 184.598C81.6494 186.068 80.6134 187.16 79.2274 187.16C77.9674 187.16 76.8614 186.32 76.8614 184.584C76.8614 182.862 78.0094 182.022 79.2274 182.022C80.6134 182.022 81.6494 183.128 81.6494 184.598ZM84.6431 188H85.7211V177.5H84.6431V188ZM93.1984 183.8C93.1984 182.008 92.1484 181.028 90.5384 181.028C89.4044 181.028 88.3824 181.518 87.7664 182.526L88.4804 183.114C89.0404 182.386 89.6424 182.022 90.4684 182.022C91.4904 182.022 92.1204 182.624 92.1204 183.744V184.332H89.9644C88.4944 184.332 87.5144 185.074 87.5144 186.236C87.5144 187.412 88.4944 188.154 89.8944 188.154C90.8884 188.154 91.6864 187.79 92.1904 187.118V188H93.1984V183.8ZM92.1204 185.382C92.1204 186.432 91.1544 187.258 90.0344 187.258C89.2364 187.258 88.6204 186.866 88.6204 186.18C88.6204 185.55 89.1384 185.214 90.0904 185.214H92.1204V185.382ZM101.127 183.716C101.127 182.106 100.175 181.028 98.5929 181.028C97.7389 181.028 96.9969 181.35 96.4929 181.91V181.182H95.4849V188H96.5629V183.842C96.5629 182.778 97.3049 182.022 98.3549 182.022C99.4049 182.022 100.049 182.764 100.049 183.842V188H101.127V183.716ZM107.139 187.09C106.789 187.146 106.495 187.174 106.229 187.174C105.291 187.174 104.787 186.838 104.787 185.872V182.148H106.915V181.182H104.787V179.32H103.709V181.182H102.561V182.148H103.709V185.942C103.709 187.44 104.591 188.154 106.005 188.154C106.327 188.154 106.705 188.098 107.139 188V187.09ZM108.103 186.824C108.705 187.608 109.629 188.154 110.763 188.154C111.435 188.154 111.995 187.986 112.457 187.636C112.919 187.286 113.157 186.782 113.157 186.152C113.157 185.214 112.625 184.682 111.351 184.136L110.721 183.87C109.895 183.52 109.615 183.31 109.615 182.876C109.615 182.33 110.077 182.022 110.749 182.022C111.379 182.022 111.967 182.316 112.429 182.778L113.087 182.106C112.527 181.434 111.757 181.028 110.805 181.028C109.503 181.028 108.509 181.742 108.509 182.932C108.509 183.842 109.069 184.36 110.203 184.822L110.861 185.102C111.701 185.438 112.051 185.648 112.051 186.194C112.051 186.796 111.491 187.16 110.749 187.16C109.979 187.16 109.447 186.782 108.789 186.11L108.103 186.824ZM114.992 187.272C114.992 187.776 115.384 188.154 115.874 188.154C116.364 188.154 116.756 187.776 116.756 187.272C116.756 186.768 116.364 186.39 115.874 186.39C115.384 186.39 114.992 186.768 114.992 187.272Z" fill="#727272"/>
<circle cx="37" cy="52" r="37" fill="#46A358" fill-opacity="0.13"/>
<g clip-path="url(#clip0_1_598)">
<path d="M51.3006 44.0271C51.3205 44.5113 51.4595 44.9693 51.7176 45.3815C51.9393 45.7414 52.5053 45.3979 52.2835 45.0413C52.0883 44.7239 51.979 44.3869 51.9658 44.0172C51.946 43.5952 51.2841 43.6083 51.3006 44.0271Z" fill="#46A358"/>
<path d="M59.8094 43.9845C59.7763 44.1677 59.7399 44.3476 59.7068 44.5308C59.6737 44.7042 59.7664 44.8842 59.9451 44.93C60.1106 44.9725 60.3158 44.8678 60.3489 44.6944C60.382 44.5112 60.4184 44.3313 60.4515 44.1481C60.4846 43.9747 60.3919 43.7947 60.2132 43.7489C60.0477 43.7064 59.8425 43.8111 59.8094 43.9845Z" fill="#46A358"/>
<path d="M64.3401 44.6355C64.767 44.6257 64.7538 43.9714 64.3268 43.9812C63.8999 43.991 63.9131 44.6453 64.3401 44.6355Z" fill="#46A358"/>
<path d="M39.4827 45.7937C39.9096 45.7839 39.8963 45.1296 39.4694 45.1394C39.0425 45.1492 39.0557 45.8035 39.4827 45.7937Z" fill="#46A358"/>
<path d="M51.5886 4.38731C49.0336 11.8369 47.6403 19.6399 47.4881 27.5083C47.412 31.4638 47.6469 35.4225 48.193 39.342C48.4445 41.1479 48.7623 42.9474 49.1462 44.7304C49.4473 46.1242 49.6029 47.7175 50.6487 48.7808C51.0955 49.2355 51.7805 48.5256 51.3371 48.0741C50.2085 46.9257 50.0927 44.4981 49.8014 42.9964C49.4341 41.0989 49.1428 39.1849 48.9277 37.2612C48.5207 33.6231 48.385 29.9588 48.514 26.301C48.7755 18.9201 50.1556 11.621 52.5516 4.62941C52.7568 4.03069 51.7905 3.79186 51.5886 4.38731Z" fill="#46A358"/>
<path d="M55.4409 4.52141C56.7779 11.9645 56.811 19.5712 57.0791 27.1058C57.2048 30.6458 57.4199 34.1956 57.3471 37.7388C57.271 41.4162 56.5462 44.8744 55.5699 48.4078C55.4011 49.0196 56.3642 49.2584 56.533 48.6499C57.4497 45.3422 58.1778 42.0771 58.3168 38.6353C58.4724 34.791 58.2109 30.9272 58.0752 27.0895C57.8038 19.4632 57.7476 11.778 56.394 4.24332C56.2815 3.6217 55.3283 3.90307 55.4409 4.52141Z" fill="#46A358"/>
<path d="M62.6293 17.3105C63.0827 27.4952 63.4931 37.8043 60.9779 47.7796C60.8223 48.3947 61.7854 48.6336 61.9409 48.0217C64.476 37.9613 64.0822 27.5606 63.6222 17.2908C63.5924 16.6594 62.5995 16.6758 62.6293 17.3105Z" fill="#46A358"/>
<path d="M59.8226 17.4609C58.4161 19.0869 57.4762 20.978 57.0625 23.0817C56.94 23.7 57.9031 23.9454 58.0256 23.3238C58.4062 21.3804 59.2368 19.6464 60.5375 18.1414C60.9512 17.6605 60.2396 16.98 59.8226 17.4609Z" fill="#46A358"/>
<path d="M69.6056 23.7164C69.5825 31.0908 68.583 38.3965 66.6238 45.5124C66.455 46.1242 67.4181 46.363 67.5868 45.7545C69.5659 38.5568 70.5753 31.1562 70.5985 23.6968C70.5985 23.0654 69.6056 23.085 69.6056 23.7164Z" fill="#46A358"/>
<path d="M67.7193 21.5211C65.1511 24.4624 63.8902 28.0841 62.9834 31.8106C62.8344 32.4257 63.7975 32.6678 63.9464 32.0527C64.8135 28.5029 65.9851 25.012 68.4375 22.2017C68.8511 21.724 68.1363 21.0402 67.7193 21.5211Z" fill="#46A358"/>
<path d="M43.7552 10.4171C45.5225 14.5329 46.8066 18.7991 47.6009 23.1995C47.7134 23.8212 48.6632 23.5365 48.554 22.9182C47.7597 18.5178 46.4723 14.2515 44.7084 10.1357C44.4602 9.56317 43.507 9.83472 43.7552 10.4171Z" fill="#46A358"/>
<path d="M41.9151 10.7736C41.3955 17.0193 40.8859 23.3434 41.9383 29.5662C43.0404 36.0572 45.7475 42.3912 47.8292 48.6237C48.0278 49.2224 48.9809 48.9443 48.7824 48.3423C46.7669 42.2995 44.1623 36.1553 42.9973 29.8868C41.8258 23.5757 42.3785 17.101 42.908 10.754C42.9609 10.1258 41.9681 10.1487 41.9151 10.7736Z" fill="#46A358"/>
<path d="M35.5969 25.8626C38.9097 28.9118 41.5937 32.4779 43.6059 36.4858C43.8905 37.0518 44.7345 36.5348 44.4532 35.9721C42.4046 31.8923 39.6577 28.2575 36.2853 25.1526C35.8186 24.7241 35.1303 25.4307 35.5969 25.8626Z" fill="#46A358"/>
<path d="M33.3233 27.1222C35.8882 34.6995 39.34 41.9364 43.6258 48.7088C43.9634 49.2454 44.8139 48.735 44.4731 48.1951C40.2303 41.4915 36.8148 34.3396 34.2764 26.8409C34.0746 26.2454 33.1214 26.5203 33.3233 27.1222Z" fill="#46A358"/>
<path d="M39.0687 46.7621C37.6059 44.1775 35.4613 42.028 32.7939 40.6604C32.2511 40.3823 31.7315 40.4543 32.7839 40.3496C33.1678 40.3104 33.565 40.294 33.9489 40.3005C35.1999 40.3136 36.3317 40.5361 37.4073 41.2068C38.6583 41.9855 39.7505 43.1044 40.8691 44.0564C41.3523 44.4687 42.0406 43.762 41.5575 43.3498C40.141 42.1392 38.7378 40.6277 37.0003 39.8752C36.0306 39.4532 34.9815 39.3288 33.929 39.3256C33.2605 39.3223 31.8705 39.198 31.3112 39.7607C30.2191 40.8535 32.3107 41.498 32.9626 41.8808C35.1999 43.1829 36.9605 45.0543 38.2215 47.2856C38.5326 47.8287 39.3798 47.315 39.0687 46.7621Z" fill="#46A358"/>
<path d="M69.2814 38.7923C70.2511 36.6559 72.5048 35.9852 74.6494 35.5403C74.9638 35.4749 75.0896 35.0626 74.9307 34.814C73.7658 32.9949 71.6444 32.8084 69.6554 32.9884C69.0232 33.044 69.0365 34.0255 69.6752 33.9699C71.2803 33.8259 73.1171 33.8161 74.0835 35.3276C74.1762 35.0855 74.2721 34.8434 74.3648 34.6013C71.9753 35.0953 69.4833 35.9492 68.4143 38.3147C68.1528 38.8872 69.0199 39.3682 69.2814 38.7923Z" fill="#46A358"/>
<path d="M35.4318 24.9138C34.9949 25.4831 34.5051 26.193 33.7803 26.4221C33.0655 26.6478 32.301 26.3239 32.3572 25.47C32.4003 24.8026 32.9794 24.3151 33.542 24.037C34.1973 23.7131 35.9944 23.5593 35.5178 24.8026C35.2928 25.3948 36.2558 25.627 36.4809 25.0447C36.9409 23.844 35.8355 22.7938 34.664 22.7709C33.4328 22.748 31.9998 23.5561 31.5365 24.711C31.1029 25.7808 31.5563 27.1189 32.761 27.4232C34.2337 27.7929 35.349 26.638 36.1499 25.5976C36.5305 25.0938 35.819 24.41 35.4318 24.9138Z" fill="#46A358"/>
<path d="M43.9968 9.6809C43.3779 9.7954 42.4811 10.1945 41.8622 9.86738C41.2433 9.53694 41.3558 8.71575 41.7133 8.24135C42.0872 7.74733 42.6763 7.56739 43.272 7.73097C43.7552 7.86511 45.2611 9.11489 44.2119 9.54676C43.6295 9.78559 43.9042 10.7311 44.4966 10.489C45.7376 9.97862 45.6946 8.55871 44.897 7.64591C44.0928 6.72329 42.6532 6.37322 41.5776 7.04392C40.6377 7.63282 40.1148 8.91532 40.6244 9.94263C41.3459 11.4018 43.0338 10.8522 44.2814 10.6231C44.9069 10.5054 44.619 9.56311 43.9968 9.6809Z" fill="#46A358"/>
<path d="M55.7917 3.6937C54.9312 3.9129 53.9285 4.17136 53.0415 3.9587C51.7938 3.66425 51.7475 2.25089 52.6245 1.51803C53.3261 0.932397 54.4017 0.866963 55.2523 1.12215C55.7884 1.28247 56.4172 1.62927 56.5628 2.21162C56.7018 2.758 56.4338 3.29782 55.8778 3.43196C55.2589 3.58246 55.5402 4.5247 56.1624 4.37421C57.6417 4.01432 57.9661 2.19199 57.0559 1.11888C56.03 -0.0883685 53.9715 -0.294485 52.5914 0.372939C51.2941 1.0011 50.5031 2.68929 51.3669 3.97833C52.3664 5.47349 54.6201 5.00237 56.073 4.6294C56.6919 4.47563 56.4106 3.53338 55.7917 3.6937Z" fill="#46A358"/>
<path d="M62.8707 13.3419C61.4443 13.09 59.8822 13.4989 59.2302 14.8959C58.7007 16.0279 59.2004 17.4969 60.4316 17.9222C61.6726 18.3508 63.5557 17.8208 64.2441 16.6823C64.9027 15.5863 64.4261 14.1958 63.387 13.5414C62.8475 13.2012 62.3676 14.0616 62.9038 14.3986C63.5723 14.8174 63.7907 15.7695 63.2446 16.3813C62.7581 16.9276 61.719 17.1599 61.014 17.0356C60.1072 16.8753 59.7564 15.9363 60.2098 15.1609C60.7062 14.3136 61.7289 14.1369 62.6291 14.2939C63.2546 14.4052 63.4995 13.4531 62.8707 13.3419Z" fill="#46A358"/>
<path d="M70.5656 18.7663C69.3113 18.6845 67.5738 18.8612 67.2958 20.3793C67.0674 21.6225 68.4971 23.2649 69.5926 23.7066C72.7201 24.9662 73.3886 18.6845 70.6913 18.8514C70.0559 18.8906 70.0724 19.8721 70.7112 19.8329C71.5882 19.7773 71.3731 21.8286 71.1745 22.2343C70.7079 23.1995 69.8143 22.8461 69.2252 22.231C68.7718 21.7566 67.9577 20.9158 68.4276 20.2353C68.881 19.581 69.8937 19.7053 70.5854 19.7478C71.2242 19.7904 71.1977 18.8089 70.5656 18.7663Z" fill="#46A358"/>
<path d="M52.6379 6.17685C52.5386 6.50729 52.436 6.83773 52.3367 7.16817C52.2143 7.57386 52.8563 7.7309 52.9788 7.32849C53.0781 6.99805 53.1807 6.66761 53.28 6.33717C53.4024 5.93148 52.7604 5.77444 52.6379 6.17685Z" fill="#46A358"/>
<path d="M54.0508 6.23258C54.0541 6.45178 54.0608 6.66771 54.0641 6.88692C54.074 7.30896 54.7359 7.29588 54.726 6.87383C54.7227 6.65463 54.716 6.43869 54.7127 6.21949C54.7061 5.79744 54.0442 5.81053 54.0508 6.23258Z" fill="#46A358"/>
<path d="M53.5808 10.1683C54.0077 10.1585 53.9945 9.50415 53.5675 9.51396C53.1439 9.52051 53.1571 10.1748 53.5808 10.1683Z" fill="#46A358"/>
<path d="M51.6053 10.5348C51.5755 10.8979 51.5457 11.2643 51.5192 11.6275C51.506 11.8042 51.6913 11.9514 51.8568 11.9481C52.0521 11.9448 52.1679 11.7911 52.1811 11.6144C52.2109 11.2513 52.2407 10.8848 52.2672 10.5217C52.2804 10.345 52.0951 10.1978 51.9296 10.201C51.7343 10.2043 51.6185 10.3581 51.6053 10.5348Z" fill="#46A358"/>
<path d="M53.1705 11.5948C53.1804 11.9939 53.1871 12.3931 53.197 12.7955C53.2069 13.2175 53.8688 13.2044 53.8589 12.7824C53.849 12.3832 53.8424 11.9841 53.8324 11.5817C53.8225 11.1596 53.1606 11.1727 53.1705 11.5948Z" fill="#46A358"/>
<path d="M54.3419 9.27847C54.3849 9.60564 54.4279 9.9328 54.471 10.2567C54.4941 10.4334 54.6166 10.5806 54.8085 10.5773C54.9707 10.5741 55.156 10.4203 55.1329 10.2436C55.0898 9.91645 55.0468 9.58928 55.0038 9.26538C54.9806 9.08871 54.8582 8.94148 54.6662 8.94476C54.5008 8.94803 54.3154 9.1018 54.3419 9.27847Z" fill="#46A358"/>
<path d="M54.4381 14.186C54.4414 14.3692 54.4447 14.5492 54.448 14.7324C54.458 15.1544 55.1199 15.1413 55.1099 14.7193C55.1066 14.5361 55.1033 14.3561 55.1 14.1729C55.0901 13.7509 54.4282 13.764 54.4381 14.186Z" fill="#46A358"/>
<path d="M53.005 8.86957C52.9719 9.19347 53.0447 9.49773 53.1804 9.79218C53.2532 9.9525 53.4981 9.98521 53.6371 9.90015C53.8059 9.79873 53.8191 9.61224 53.7463 9.44866C53.6603 9.26217 53.647 9.05605 53.6669 8.85321C53.6835 8.67654 53.4915 8.52931 53.3293 8.53259C53.1341 8.53913 53.0215 8.6929 53.005 8.86957Z" fill="#46A358"/>
<path d="M50.6951 14.0649C50.6289 14.4313 50.5627 14.7945 50.4965 15.1609C50.4204 15.5731 51.0624 15.7367 51.1385 15.3212C51.2047 14.9548 51.2709 14.5916 51.3371 14.2252C51.4099 13.813 50.7712 13.6494 50.6951 14.0649Z" fill="#46A358"/>
<path d="M52.5188 16.3223C52.489 16.5775 52.4559 16.8327 52.4261 17.0879C52.4063 17.2645 52.4758 17.4379 52.6644 17.487C52.82 17.5263 53.045 17.4281 53.0682 17.2515C53.098 16.9963 53.131 16.7411 53.1608 16.4859C53.1807 16.3092 53.1112 16.1358 52.9225 16.0867C52.767 16.0442 52.542 16.1456 52.5188 16.3223Z" fill="#46A358"/>
<path d="M51.9359 20.978C51.9888 21.2561 51.9557 21.5277 51.8664 21.7927C51.7307 22.1918 52.3727 22.3521 52.5084 21.953C52.6375 21.5735 52.6474 21.1841 52.5713 20.7915C52.5382 20.6181 52.3198 20.5233 52.1609 20.5723C51.9723 20.628 51.8995 20.8046 51.9359 20.978Z" fill="#46A358"/>
<path d="M49.9138 18.3378C49.884 18.593 49.8509 18.8482 49.8211 19.1034C49.8013 19.28 49.8708 19.4534 50.0594 19.5025C50.215 19.5418 50.44 19.4436 50.4632 19.2669C50.493 19.0117 50.5261 18.7566 50.5559 18.5014C50.5757 18.3247 50.5062 18.1513 50.3176 18.1022C50.1587 18.063 49.9337 18.1611 49.9138 18.3378Z" fill="#46A358"/>
<path d="M54.4216 18.8579C54.501 19.2211 54.5772 19.5842 54.6566 19.9441C54.7459 20.3564 55.3814 20.1666 55.292 19.7576C55.2126 19.3945 55.1365 19.0313 55.057 18.6714C54.9677 18.2592 54.3356 18.4457 54.4216 18.8579Z" fill="#46A358"/>
<path d="M54.855 23.6673C54.8616 24.0305 54.8716 24.3936 54.8782 24.7568C54.8881 25.1788 55.55 25.1658 55.5401 24.7437C55.5335 24.3806 55.5236 24.0174 55.5169 23.6542C55.5103 23.2322 54.8484 23.2453 54.855 23.6673Z" fill="#46A358"/>
<path d="M54.0739 28.4637C54.117 28.7189 54.1567 28.9708 54.1997 29.226C54.2295 29.3994 54.4545 29.491 54.6101 29.4452C54.7987 29.3896 54.8616 29.2129 54.8318 29.0395C54.7888 28.7843 54.7491 28.5324 54.7061 28.2772C54.6763 28.1038 54.4512 28.0122 54.2957 28.058C54.107 28.1103 54.0442 28.287 54.0739 28.4637Z" fill="#46A358"/>
<path d="M51.3736 26.0295C51.3769 26.2487 51.3835 26.4647 51.3868 26.6839C51.3968 27.1059 52.0587 27.0928 52.0487 26.6708C52.0454 26.4516 52.0388 26.2356 52.0355 26.0164C52.0289 25.5944 51.367 25.6075 51.3736 26.0295Z" fill="#46A358"/>
<path d="M49.5498 23.2289C49.573 23.5004 49.5465 23.7556 49.4671 24.0174C49.3447 24.423 49.9867 24.5801 50.1092 24.1777C50.2051 23.8669 50.2382 23.5397 50.2117 23.2158C50.1753 22.8003 49.5134 22.8101 49.5498 23.2289Z" fill="#46A358"/>
<path d="M50.3804 30.7604C50.3473 31.0156 50.3175 31.2708 50.2844 31.526C50.2613 31.7026 50.3341 31.876 50.5227 31.9251C50.6783 31.9644 50.9033 31.8662 50.9265 31.6895C50.9596 31.4343 50.9894 31.1792 51.0225 30.924C51.0456 30.7473 50.9728 30.5739 50.7842 30.5248C50.6253 30.4856 50.4036 30.5837 50.3804 30.7604Z" fill="#46A358"/>
<path d="M53.7565 34.4672C53.7995 34.6832 53.8392 34.9024 53.8822 35.1183C53.9153 35.2917 54.1338 35.3866 54.2926 35.3375C54.478 35.2819 54.5475 35.1052 54.5144 34.9318C54.4713 34.7159 54.4316 34.4967 54.3886 34.2807C54.3555 34.1073 54.1371 34.0125 53.9782 34.0615C53.7929 34.1172 53.7234 34.2938 53.7565 34.4672Z" fill="#46A358"/>
<path d="M51.9657 38.2133C52.0452 38.5764 52.1279 38.9363 52.2073 39.2995C52.3 39.7117 52.9321 39.5219 52.8428 39.113C52.7633 38.7498 52.6806 38.3899 52.6012 38.0268C52.5085 37.6145 51.8731 37.801 51.9657 38.2133Z" fill="#46A358"/>
<path d="M55.6595 40.5819C55.59 40.8371 55.5238 41.0923 55.4543 41.3507C55.3451 41.7597 55.9872 41.92 56.0964 41.511C56.1659 41.2558 56.2321 41.0006 56.3016 40.7422C56.4108 40.3332 55.7688 40.1729 55.6595 40.5819Z" fill="#46A358"/>
<path d="M55.166 12.1871C55.2091 12.4423 55.2521 12.6942 55.2951 12.9494C55.3249 13.1228 55.5499 13.2144 55.7055 13.1686C55.8941 13.113 55.957 12.9363 55.9272 12.7629C55.8842 12.5077 55.8412 12.2558 55.7981 12.0006C55.7684 11.8272 55.5433 11.7356 55.3878 11.7814C55.2024 11.837 55.1362 12.0137 55.166 12.1871Z" fill="#46A358"/>
<path d="M55.2457 16.679C55.292 17.0061 55.3383 17.33 55.3847 17.6572C55.4111 17.8306 55.527 17.9811 55.7222 17.9778C55.8844 17.9746 56.0697 17.8208 56.0466 17.6441C56.0002 17.317 55.9539 16.9931 55.9076 16.6659C55.8811 16.4925 55.7653 16.342 55.57 16.3453C55.4078 16.3485 55.2192 16.5056 55.2457 16.679Z" fill="#46A358"/>
<path d="M60.2097 20.3106C60.1204 20.8243 60.0277 21.3347 59.9384 21.8483C59.8656 22.2605 60.5076 22.4241 60.5804 22.0086C60.6698 21.495 60.7624 20.9846 60.8518 20.4709C60.9246 20.0587 60.2826 19.8951 60.2097 20.3106Z" fill="#46A358"/>
<path d="M61.4971 19.388C61.5037 19.6432 61.507 19.8984 61.5137 20.1503C61.5236 20.5724 62.1855 20.5593 62.1756 20.1373C62.1689 19.8821 62.1656 19.6269 62.159 19.3749C62.1491 18.9529 61.4905 18.966 61.4971 19.388Z" fill="#46A358"/>
<path d="M61.1364 22.8854C61.0735 23.4318 61.0139 23.9781 60.9511 24.5245C60.9047 24.9433 61.5666 24.9237 61.613 24.5114C61.6758 23.9651 61.7354 23.4187 61.7983 22.8723C61.8446 22.4568 61.1827 22.4732 61.1364 22.8854Z" fill="#46A358"/>
<path d="M59.4224 23.844C59.2801 24.1384 59.1411 24.4329 58.9988 24.724C58.8168 25.1036 59.396 25.4242 59.578 25.0414C59.7203 24.7469 59.8593 24.4525 60.0016 24.1613C60.1836 23.7818 59.6045 23.4612 59.4224 23.844Z" fill="#46A358"/>
<path d="M58.4263 22.0937C58.3403 22.3162 58.2575 22.5354 58.1715 22.7579C58.1086 22.9247 58.2509 23.1145 58.4097 23.157C58.5984 23.2061 58.7473 23.085 58.8135 22.9215C58.8996 22.699 58.9823 22.4798 59.0683 22.2573C59.1312 22.0904 58.9889 21.9007 58.8301 21.8582C58.6414 21.8091 58.4925 21.9269 58.4263 22.0937Z" fill="#46A358"/>
<path d="M60.316 26.3926C60.3028 26.6838 60.2928 26.975 60.2796 27.2662C60.2631 27.6882 60.925 27.6719 60.9415 27.2531C60.9547 26.9619 60.9647 26.6707 60.9779 26.3795C60.9945 25.9575 60.3326 25.9739 60.316 26.3926Z" fill="#46A358"/>
<path d="M61.6729 28.1103C61.6597 28.3818 61.6464 28.6566 61.6332 28.9282C61.6233 29.1048 61.802 29.2521 61.9708 29.2488C62.1594 29.2455 62.2852 29.0918 62.2951 28.9151C62.3084 28.6435 62.3216 28.3687 62.3348 28.0972C62.3448 27.9205 62.166 27.7733 61.9973 27.7765C61.8086 27.7798 61.6829 27.9336 61.6729 28.1103Z" fill="#46A358"/>
<path d="M61.1499 31.0351C61.1201 31.2707 61.087 31.5095 61.0573 31.7451C61.0341 31.9185 61.1102 32.0952 61.2955 32.1442C61.4544 32.1835 61.6761 32.0853 61.6993 31.9087C61.7291 31.6731 61.7622 31.4343 61.792 31.1987C61.8151 31.0253 61.739 30.8487 61.5537 30.7996C61.3948 30.757 61.1731 30.8585 61.1499 31.0351Z" fill="#46A358"/>
<path d="M58.6808 29.0133C58.6477 29.2129 58.6146 29.4158 58.5815 29.6153C58.5517 29.7887 58.6377 29.9654 58.8198 30.0145C58.9819 30.0537 59.1937 29.9523 59.2235 29.7789C59.2566 29.5793 59.2897 29.3765 59.3228 29.1769C59.3526 29.0035 59.2665 28.8269 59.0845 28.7778C58.9224 28.7353 58.7105 28.8367 58.6808 29.0133Z" fill="#46A358"/>
<path d="M59.1573 34.2152C59.1606 34.3592 59.164 34.5064 59.1673 34.6504C59.1772 35.0724 59.8391 35.0593 59.8292 34.6373C59.8259 34.4933 59.8225 34.3461 59.8192 34.2022C59.8093 33.7801 59.1474 33.7932 59.1573 34.2152Z" fill="#46A358"/>
<path d="M61.2955 36.1357C61.2988 36.2796 61.3021 36.4268 61.3054 36.5708C61.3154 36.9928 61.9773 36.9797 61.9674 36.5577C61.964 36.4137 61.9607 36.2665 61.9574 36.1226C61.9475 35.7005 61.2856 35.7136 61.2955 36.1357Z" fill="#46A358"/>
<path d="M59.3894 40.1011C59.4158 40.3563 59.3894 40.5918 59.3066 40.8339C59.2504 41.0008 59.3827 41.1905 59.5449 41.2331C59.7302 41.2789 59.8891 41.1644 59.9487 40.9975C60.048 40.7063 60.0844 40.3955 60.0513 40.0912C60.0314 39.9146 59.9023 39.7674 59.7137 39.7706C59.5449 39.7706 59.3695 39.9244 59.3894 40.1011Z" fill="#46A358"/>
<path d="M60.2065 18.6518C60.1205 18.8186 60.0311 18.9855 59.9451 19.1491C59.7498 19.522 60.3257 19.8427 60.5243 19.4664C60.6103 19.2996 60.6997 19.1327 60.7857 18.9691C60.981 18.5962 60.4051 18.2755 60.2065 18.6518Z" fill="#46A358"/>
<path d="M43.0399 12.4324C43.0995 12.776 43.1624 13.1228 43.2219 13.4663C43.2517 13.6397 43.4768 13.7313 43.6323 13.6855C43.821 13.6299 43.8871 13.4532 43.854 13.2798C43.7945 12.9363 43.7316 12.5895 43.672 12.2459C43.6422 12.0725 43.4172 11.9809 43.2616 12.0267C43.073 12.0824 43.0068 12.259 43.0399 12.4324Z" fill="#46A358"/>
<path d="M44.0265 14.595C44.1787 14.9549 44.3343 15.3181 44.4865 15.678C44.556 15.8416 44.7149 15.9528 44.8969 15.8972C45.0524 15.8514 45.1881 15.6551 45.1186 15.4915C44.9664 15.1316 44.8108 14.7684 44.6586 14.4086C44.5891 14.245 44.4303 14.1337 44.2482 14.1894C44.0927 14.2352 43.957 14.4315 44.0265 14.595Z" fill="#46A358"/>
<path d="M43.1228 15.8023C43.0467 16.3061 43.0533 16.787 43.1427 17.2843C43.2155 17.6966 43.8476 17.5101 43.7781 17.0978C43.7119 16.7249 43.7119 16.3388 43.7682 15.9626C43.8244 15.5503 43.1824 15.3868 43.1228 15.8023Z" fill="#46A358"/>
<path d="M44.3805 17.6932C44.493 18.0008 44.6022 18.3116 44.7148 18.6191C44.8571 19.015 45.4925 18.8318 45.3502 18.4326C45.2377 18.1251 45.1284 17.8143 45.0159 17.5067C44.8736 17.1109 44.2382 17.2941 44.3805 17.6932Z" fill="#46A358"/>
<path d="M42.8414 19.0019C42.848 19.3651 42.8579 19.7282 42.8645 20.0914C42.8745 20.5134 43.5364 20.5004 43.5264 20.0783C43.5198 19.7152 43.5099 19.352 43.5033 18.9888C43.4966 18.5668 42.8347 18.5799 42.8414 19.0019Z" fill="#46A358"/>
<path d="M44.0826 20.2321C44.0892 20.5593 44.0959 20.8864 44.1025 21.2136C44.1124 21.6356 44.7743 21.6226 44.7644 21.2005C44.7578 20.8733 44.7512 20.5462 44.7445 20.219C44.7346 19.797 44.0727 19.81 44.0826 20.2321Z" fill="#46A358"/>
<path d="M45.9328 20.8799C46.0652 21.2594 46.2009 21.6389 46.3333 22.0184C46.4723 22.4143 47.1077 22.2311 46.9687 21.8319C46.8363 21.4524 46.7006 21.0729 46.5683 20.6934C46.4293 20.2975 45.7938 20.4807 45.9328 20.8799Z" fill="#46A358"/>
<path d="M46.6573 24.1384C46.697 24.3379 46.74 24.5375 46.7798 24.7371C46.8162 24.9105 47.0313 25.0054 47.1901 24.9563C47.3755 24.9007 47.4483 24.724 47.4119 24.5506C47.3722 24.351 47.3291 24.1515 47.2894 23.9519C47.253 23.7785 47.0379 23.6836 46.879 23.7327C46.697 23.785 46.6209 23.965 46.6573 24.1384Z" fill="#46A358"/>
<path d="M44.8405 24.1744C44.9497 24.4819 45.0291 24.796 45.0655 25.1199C45.0854 25.2965 45.2144 25.4438 45.4031 25.4405C45.5686 25.4372 45.7473 25.2835 45.7274 25.1068C45.6844 24.724 45.605 24.351 45.4759 23.9879C45.3336 23.592 44.6981 23.7752 44.8405 24.1744Z" fill="#46A358"/>
<path d="M43.1426 22.869C43.1492 23.1242 43.1526 23.3794 43.1592 23.6313C43.1691 24.0533 43.831 24.0403 43.8211 23.6182C43.8145 23.363 43.8111 23.1078 43.8045 22.8559C43.7946 22.4339 43.136 22.4469 43.1426 22.869Z" fill="#46A358"/>
<path d="M43.9404 26.7786C43.9669 27.1058 44.0298 27.4264 44.139 27.734C44.2813 28.1298 44.9167 27.9466 44.7744 27.5475C44.6818 27.2923 44.6222 27.0338 44.6023 26.7656C44.5725 26.3468 43.9106 26.3599 43.9404 26.7786Z" fill="#46A358"/>
<path d="M45.3898 29.5629C45.4494 29.7625 45.5089 29.9621 45.5685 30.1584C45.6877 30.5608 46.3231 30.3776 46.2039 29.9719C46.1444 29.7723 46.0848 29.576 46.0252 29.3765C45.9061 28.974 45.2707 29.1573 45.3898 29.5629Z" fill="#46A358"/>
<path d="M46.1676 27.0372C46.2073 27.1812 46.247 27.3251 46.2867 27.4723C46.3993 27.878 47.0347 27.6915 46.9222 27.2859C46.8824 27.1419 46.8427 26.9979 46.803 26.8507C46.6905 26.445 46.0551 26.6315 46.1676 27.0372Z" fill="#46A358"/>
<path d="M44.291 32.4779C44.3737 32.8018 44.4531 33.129 44.5359 33.4529C44.6385 33.8618 45.2739 33.6753 45.1713 33.2664C45.0885 32.9425 45.0091 32.6153 44.9264 32.2914C44.8238 31.8824 44.1884 32.0689 44.291 32.4779Z" fill="#46A358"/>
<path d="M45.9362 37.2416C45.9958 37.3855 46.052 37.5295 46.1116 37.6735C46.1778 37.837 46.34 37.9483 46.522 37.8927C46.6808 37.8468 46.8099 37.6505 46.7437 37.487C46.6841 37.343 46.6279 37.1991 46.5683 37.0551C46.5021 36.8915 46.34 36.7803 46.1579 36.8359C45.9991 36.8817 45.87 37.078 45.9362 37.2416Z" fill="#46A358"/>
<path d="M67.4811 23.6836C67.3057 24.0337 67.1269 24.3805 66.9515 24.7306C66.7596 25.1068 67.3388 25.4275 67.5307 25.0479C67.7061 24.6979 67.8848 24.3511 68.0602 24.001C68.2522 23.6247 67.673 23.3074 67.4811 23.6836Z" fill="#46A358"/>
<path d="M68.4078 24.5049C68.3251 24.8353 68.239 25.1625 68.1563 25.4929C68.0504 25.9019 68.6924 26.0622 68.7983 25.6532C68.8811 25.3228 68.9671 24.9956 69.0499 24.6652C69.1524 24.2595 68.5104 24.0992 68.4078 24.5049Z" fill="#46A358"/>
<path d="M67.5936 27.6326C67.5109 27.9074 67.4282 28.1823 67.3421 28.4571C67.2197 28.8628 67.8617 29.0198 67.9842 28.6174C68.0669 28.3426 68.1496 28.0678 68.2357 27.7929C68.3548 27.3905 67.7128 27.2302 67.5936 27.6326Z" fill="#46A358"/>
<path d="M67.0374 26.3076C66.9679 26.4352 66.895 26.566 66.8255 26.6936C66.6204 27.0633 67.1995 27.384 67.4047 27.011C67.4742 26.8834 67.547 26.7525 67.6165 26.6249C67.8217 26.2585 67.2425 25.9379 67.0374 26.3076Z" fill="#46A358"/>
<path d="M68.6722 26.4646C68.6424 26.7198 68.6126 26.975 68.5829 27.2302C68.563 27.4069 68.6325 27.5803 68.8211 27.6293C68.9767 27.6686 69.2017 27.5704 69.2249 27.3938C69.2547 27.1386 69.2845 26.8834 69.3143 26.6282C69.3341 26.4515 69.2646 26.2781 69.076 26.2291C68.9171 26.1898 68.6921 26.2879 68.6722 26.4646Z" fill="#46A358"/>
<path d="M65.5546 28.1626C65.4884 28.372 65.3891 28.5617 65.27 28.745C65.0383 29.0983 65.6175 29.4157 65.8492 29.0623C66.0014 28.8333 66.1139 28.5846 66.1966 28.3229C66.2496 28.1561 66.1238 27.9663 65.9584 27.9238C65.773 27.8812 65.6076 27.9925 65.5546 28.1626Z" fill="#46A358"/>
<path d="M65.5351 30.9763C65.3928 31.2086 65.3233 31.4736 65.3366 31.7452C65.3564 32.1639 66.0183 32.1541 65.9985 31.7321C65.9918 31.5685 66.0249 31.4343 66.1143 31.2969C66.336 30.9338 65.7569 30.6164 65.5351 30.9763Z" fill="#46A358"/>
<path d="M67.2592 30.2565C67.1931 30.4757 67.1269 30.6982 67.064 30.9174C66.9448 31.3231 67.5869 31.4801 67.706 31.0777C67.7722 30.8585 67.8384 30.636 67.9013 30.4168C68.0204 30.0111 67.3784 29.8541 67.2592 30.2565Z" fill="#46A358"/>
<path d="M66.7132 33.4823C66.6437 33.7211 66.5776 33.9567 66.5081 34.1955C66.3922 34.6012 67.0343 34.7615 67.1501 34.3558C67.2196 34.117 67.2858 33.8814 67.3553 33.6426C67.4711 33.2402 66.8291 33.0799 66.7132 33.4823Z" fill="#46A358"/>
<path d="M68.8114 28.8366C68.7949 28.9839 68.7816 29.1278 68.7651 29.275C68.7452 29.4517 68.9405 29.5989 69.1026 29.5957C69.3012 29.5924 69.4071 29.4386 69.427 29.2619C69.4435 29.1147 69.4568 28.9708 69.4733 28.8235C69.4932 28.6469 69.2979 28.4997 69.1357 28.5029C68.9372 28.5095 68.8313 28.66 68.8114 28.8366Z" fill="#46A358"/>
<path d="M64.6545 35.3799C64.6214 35.4912 64.585 35.5991 64.5519 35.7104C64.4261 36.1128 65.0682 36.2731 65.1939 35.8707C65.227 35.7595 65.2634 35.6515 65.2965 35.5402C65.4223 35.1378 64.7802 34.9808 64.6545 35.3799Z" fill="#46A358"/>
<path d="M64.1216 38.7204C64.0521 38.9036 63.9792 39.0868 63.9097 39.27C63.8469 39.4336 63.9892 39.6266 64.148 39.6691C64.34 39.7182 64.4856 39.5972 64.5518 39.4336C64.6213 39.2504 64.6941 39.0672 64.7636 38.8839C64.8265 38.7204 64.6842 38.5273 64.5253 38.4848C64.3334 38.4357 64.1877 38.5535 64.1216 38.7204Z" fill="#46A358"/>
<path d="M66.7262 37.3888C66.7295 37.4968 66.7295 37.608 66.7328 37.716C66.7427 38.138 67.4046 38.1249 67.3947 37.7029C67.3914 37.5949 67.3914 37.4837 67.3881 37.3757C67.3782 36.9537 66.7163 36.9668 66.7262 37.3888Z" fill="#46A358"/>
<path d="M65.4921 41.7237C65.4755 41.8709 65.4623 42.0148 65.4457 42.1621C65.4259 42.3387 65.6211 42.486 65.7833 42.4827C65.9819 42.4794 66.0878 42.3257 66.1076 42.149C66.1242 42.0018 66.1374 41.8578 66.154 41.7106C66.1738 41.5339 65.9786 41.3867 65.8164 41.3899C65.6211 41.3932 65.5119 41.547 65.4921 41.7237Z" fill="#46A358"/>
<path d="M35.2594 28.0808C35.3157 28.2608 35.3752 28.444 35.4315 28.6239C35.5572 29.0263 36.1927 28.8398 36.0669 28.4374C36.0106 28.2575 35.9511 28.0743 35.8948 27.8943C35.7657 27.4919 35.1303 27.6784 35.2594 28.0808Z" fill="#46A358"/>
<path d="M35.941 27.3382C36.1628 27.6097 36.3878 27.8813 36.6095 28.1495C36.7221 28.287 36.9637 28.2575 37.0762 28.1397C37.2119 27.999 37.1788 27.8158 37.0663 27.6784C36.8445 27.4069 36.6195 27.1353 36.3977 26.867C36.2852 26.7296 36.0436 26.7591 35.9311 26.8769C35.7954 27.0143 35.8285 27.2008 35.941 27.3382Z" fill="#46A358"/>
<path d="M37.212 29.6415C37.4039 29.9098 37.5959 30.178 37.7845 30.443C38.0294 30.7866 38.5954 30.4463 38.3504 30.1028C38.1585 29.8345 37.9665 29.5662 37.7779 29.3012C37.5297 28.9577 36.9638 29.2947 37.212 29.6415Z" fill="#46A358"/>
<path d="M36.3981 30.4234C36.5503 30.6753 36.7026 30.9272 36.8548 31.1791C37.0732 31.539 37.6392 31.1987 37.4207 30.8389C37.2685 30.5869 37.1163 30.335 36.964 30.0831C36.7423 29.7199 36.1797 30.0602 36.3981 30.4234Z" fill="#46A358"/>
<path d="M37.8805 33.1225C38.0725 33.4628 38.2677 33.803 38.4597 34.1433C38.6682 34.5097 39.2341 34.1694 39.0256 33.803C38.8337 33.4628 38.6384 33.1225 38.4465 32.7823C38.2346 32.4158 37.672 32.7561 37.8805 33.1225Z" fill="#46A358"/>
<path d="M38.4665 32.1311C38.5989 32.3274 38.7313 32.527 38.8637 32.7233C39.0987 33.0734 39.6646 32.7331 39.4296 32.383C39.2972 32.1867 39.1649 31.9872 39.0325 31.7909C38.7942 31.4408 38.2283 31.7778 38.4665 32.1311Z" fill="#46A358"/>
<path d="M38.7742 30.7572C38.8834 30.9894 39.0687 31.1694 39.2905 31.3003C39.6611 31.5129 39.9822 30.9404 39.6115 30.7277C39.4791 30.6525 39.3997 30.551 39.3368 30.4169C39.2607 30.2566 39.0224 30.2239 38.8801 30.3089C38.7179 30.4104 38.6981 30.5968 38.7742 30.7572Z" fill="#46A358"/>
<path d="M36.2922 32.4747C36.3353 32.6546 36.375 32.8346 36.418 33.0178C36.4577 33.1912 36.6662 33.286 36.8284 33.237C37.0104 33.1846 37.0898 33.0014 37.0501 32.8313C37.0071 32.6513 36.9674 32.4714 36.9244 32.2882C36.8846 32.1148 36.6761 32.0199 36.514 32.069C36.3319 32.1213 36.2525 32.3045 36.2922 32.4747Z" fill="#46A358"/>
<path d="M38.3805 35.8935C38.5327 36.2011 38.6849 36.5086 38.8339 36.8129C38.9133 36.9732 39.1483 37.0059 39.2906 36.9208C39.4561 36.8227 39.4792 36.6297 39.3998 36.4694C39.2476 36.1618 39.0953 35.8543 38.9464 35.55C38.867 35.3897 38.632 35.357 38.4897 35.442C38.3242 35.5435 38.301 35.7365 38.3805 35.8935Z" fill="#46A358"/>
<path d="M40.8523 34.9678C40.9682 35.1837 41.0807 35.3997 41.1965 35.6156C41.3951 35.9885 41.9577 35.645 41.7625 35.2753C41.6466 35.0594 41.5341 34.8435 41.4183 34.6275C41.2164 34.2546 40.6538 34.5948 40.8523 34.9678Z" fill="#46A358"/>
<path d="M41.6073 39.6463C41.7033 39.8262 41.7993 40.0061 41.8985 40.1828C42.1004 40.5558 42.663 40.2123 42.4645 39.8426C42.3685 39.6626 42.2725 39.4827 42.1732 39.306C41.9714 38.933 41.4054 39.2733 41.6073 39.6463Z" fill="#46A358"/>
<path d="M42.7818 37.9875C42.8943 38.1675 43.0101 38.3474 43.1227 38.5273C43.3477 38.884 43.9136 38.5437 43.6886 38.1871C43.5761 38.0071 43.4602 37.8272 43.3477 37.6473C43.1193 37.2907 42.5534 37.6309 42.7818 37.9875Z" fill="#46A358"/>
<path d="M44.0994 43.0324C44.1921 43.196 44.288 43.3563 44.3807 43.5199C44.5925 43.8863 45.1551 43.5428 44.9466 43.1796C44.854 43.0161 44.758 42.8558 44.6653 42.6922C44.4535 42.3257 43.8876 42.666 44.0994 43.0324Z" fill="#46A358"/>
<path d="M33.4258 41.0106C33.6475 41.1153 33.8726 41.2167 34.0943 41.3214C34.4782 41.5014 34.8025 40.9288 34.4153 40.7489C34.1936 40.6442 33.9685 40.5428 33.7468 40.4381C33.3662 40.2614 33.0419 40.8307 33.4258 41.0106Z" fill="#46A358"/>
<path d="M35.5342 41.9625C35.7791 42.1359 36.024 42.3126 36.2656 42.486C36.4112 42.5906 36.6363 42.5023 36.7157 42.3584C36.8117 42.1882 36.7322 42.0181 36.5866 41.9134C36.3417 41.74 36.0968 41.5633 35.8552 41.3899C35.7096 41.2852 35.4845 41.3736 35.4051 41.5175C35.3125 41.6877 35.3919 41.8578 35.5342 41.9625Z" fill="#46A358"/>
<path d="M35.21 40.9615C35.3788 40.9975 35.5343 41.0531 35.6866 41.1381C36.0606 41.341 36.3816 40.7684 36.0076 40.5656C35.809 40.4576 35.5939 40.3758 35.3722 40.3268C34.9585 40.2352 34.793 40.8699 35.21 40.9615Z" fill="#46A358"/>
<path d="M37.1491 42.3584C37.298 42.4631 37.4469 42.5711 37.5959 42.6758C37.7415 42.7772 37.9665 42.6922 38.046 42.5482C38.1419 42.3781 38.0625 42.2047 37.9169 42.1032C37.768 41.9986 37.619 41.8906 37.4701 41.7859C37.3245 41.6845 37.0994 41.7695 37.02 41.9135C36.9273 42.0836 37.0035 42.2537 37.1491 42.3584Z" fill="#46A358"/>
<path d="M37.1029 43.3367C37.179 43.4447 37.2551 43.5526 37.3313 43.6606C37.5728 44.0041 38.1388 43.6672 37.8972 43.3204C37.8211 43.2124 37.7449 43.1044 37.6688 42.9965C37.4272 42.6497 36.858 42.9899 37.1029 43.3367Z" fill="#46A358"/>
<path d="M38.6023 43.8634C38.7512 43.9877 38.9001 44.1121 39.0524 44.2364C39.188 44.3509 39.3899 44.3607 39.519 44.2266C39.6381 44.1055 39.6481 43.8765 39.5091 43.7653C39.3601 43.6409 39.2112 43.5166 39.059 43.3923C38.9233 43.2778 38.7214 43.268 38.5923 43.4021C38.4732 43.5199 38.4633 43.7489 38.6023 43.8634Z" fill="#46A358"/>
<path d="M72.7629 34.2251C72.4088 34.1596 72.0579 34.1662 71.7071 34.2545C71.2935 34.3592 71.4821 34.9874 71.8958 34.8827C72.1274 34.8238 72.3624 34.814 72.5974 34.8598C73.0177 34.9383 73.1799 34.3036 72.7629 34.2251Z" fill="#46A358"/>
<path d="M70.4791 34.9023C70.3534 34.9972 70.2243 35.0888 70.0986 35.1836C69.9562 35.2883 69.8901 35.4716 69.9893 35.6351C70.0754 35.7758 70.3004 35.8511 70.4461 35.7431C70.5718 35.6482 70.7009 35.5566 70.8266 35.4617C70.969 35.357 71.0351 35.1738 70.9359 35.0103C70.8498 34.8696 70.6248 34.7976 70.4791 34.9023Z" fill="#46A358"/>
<path d="M70.5852 34.5817C71.0121 34.5719 70.9989 33.9175 70.572 33.9274C70.145 33.9372 70.1583 34.5915 70.5852 34.5817Z" fill="#46A358"/>
</g>
<g clip-path="url(#clip1_1_598)">
<path d="M37.3859 47.6164C35.0447 53.631 33.3971 59.9163 32.8568 66.3709C32.3966 71.8879 32.5367 77.8381 35.5583 82.6511C35.9051 83.2028 36.7589 82.6748 36.412 82.1197C33.3804 77.2932 33.3871 71.238 33.9141 65.7244C34.501 59.5812 36.1285 53.5938 38.3564 47.8669C38.5898 47.261 37.6193 47.0173 37.3859 47.6164Z" fill="#727272"/>
<path d="M67.7885 46.6855C73.1146 50.7471 73.1213 58.1934 73.6949 64.3061C73.9851 67.3895 74.3853 70.4831 74.5254 73.5801C74.6554 76.4097 74.422 79.4153 72.2141 81.419C71.7339 81.8556 72.4576 82.5562 72.9345 82.123C74.8789 80.3596 75.4792 77.8346 75.5459 75.2724C75.6426 71.6238 75.0323 67.9142 74.6921 64.2892C74.0951 57.9192 74.0218 50.1819 68.4789 45.9544C67.9719 45.5652 67.2749 46.2929 67.7885 46.6855Z" fill="#727272"/>
<path d="M35.7584 82.8541C38.5832 83.8864 41.4714 84.1437 44.443 84.3975C47.7313 84.6784 51.0497 85.1015 54.3548 84.9831C57.7099 84.8646 61.075 84.3806 64.41 84.015C67.3282 83.6935 70.2231 83.2873 72.9445 82.1095C73.5281 81.8556 73.2513 80.8775 72.6577 81.1347C69.8362 82.3566 66.8413 82.7356 63.8164 83.0606C60.6681 83.399 57.4998 83.856 54.3348 83.9677C51.2332 84.0794 48.1249 83.6969 45.0366 83.4363C41.9583 83.1723 38.9367 82.9421 36.0052 81.8725C35.3982 81.6458 35.1581 82.6341 35.7584 82.8541Z" fill="#727272"/>
<path d="M37.6258 48.1851C39.9537 49.1497 42.3316 50.0026 44.8429 50.3039C47.4543 50.6153 50.1157 50.1685 52.7437 50.2362C54.2012 50.2734 55.5118 50.4731 56.9826 50.2599C58.2499 50.0737 59.5173 49.8165 60.7479 49.4611C63.2992 48.7232 65.7705 47.6943 68.2752 46.8075C68.8788 46.5943 68.5987 45.6195 67.9884 45.8327C63.0858 47.5691 58.4901 49.5965 53.1973 49.2479C50.9962 49.1023 48.805 49.4306 46.6105 49.4103C43.6557 49.3799 40.8142 48.4186 38.1061 47.2983C37.5225 47.0546 37.0289 47.938 37.6258 48.1851Z" fill="#727272"/>
<path d="M7.66336 51.2414C13.2663 52.1349 18.479 54.8257 22.3844 59.0193C26.163 63.0775 28.2875 68.4253 32.4096 72.1924C32.8865 72.6291 33.5836 71.898 33.1033 71.4614C28.7344 67.4675 26.5499 61.6898 22.3477 57.5368C18.4123 53.6479 13.323 51.1195 7.91015 50.2564C7.27649 50.1549 7.02636 51.1398 7.66336 51.2414Z" fill="#727272"/>
<path d="M8.53758 49.4237C13.6236 48.2459 19.0297 48.9465 23.5988 51.5425C27.244 53.614 30.2356 56.8869 34.5879 57.3337C35.2282 57.398 35.2015 56.3826 34.5678 56.3183C29.6853 55.8174 26.1635 51.353 21.7612 49.5185C17.4689 47.7314 12.7631 47.4065 8.2541 48.449C7.62377 48.5945 7.91059 49.5693 8.53758 49.4237Z" fill="#727272"/>
<path d="M7.7236 48.7435C7.34006 49.2782 7.09327 49.9044 7.00656 50.5577C6.96987 50.8318 7.0866 51.0992 7.37008 51.1737C7.60687 51.238 7.94038 51.0789 7.97706 50.8047C8.05377 50.2226 8.25721 49.7115 8.59739 49.2342C8.75747 49.0109 8.6174 48.669 8.40395 48.5438C8.14715 48.3982 7.88035 48.5235 7.7236 48.7435Z" fill="#727272"/>
<path d="M71.8103 49.6709C73.8781 45.6533 80.4482 45.1354 84.1568 46.9767C88.1755 48.9736 90.0298 53.8103 88.3823 58.0412C86.9482 61.7271 83.2629 63.5311 80.2314 65.6567C78.954 66.5536 77.5333 67.5622 76.6495 68.8856C75.7257 70.27 75.8457 72.03 74.9319 73.4109C74.5718 73.9559 75.4489 74.4433 75.8057 73.9051C76.3827 73.0352 76.5494 72.1078 76.8062 71.1128C77.1698 69.7217 77.8968 68.8281 78.9407 67.9176C80.7383 66.3505 82.8461 65.2167 84.7604 63.812C88.1488 61.3243 90.5267 57.7907 89.8964 53.3636C89.3194 49.3324 86.1244 45.9985 82.1791 45.264C78.2036 44.5228 72.9642 45.237 70.9332 49.1801C70.6364 49.7555 71.5102 50.2497 71.8103 49.6709Z" fill="#727272"/>
<path d="M72.8242 52.2263C74.2082 49.4238 77.3599 48.6995 80.2214 48.9228C82.129 49.0718 83.3063 49.8333 84.3035 51.4952C85.4074 53.3297 85.3541 54.8832 84.7304 56.8396C83.7499 59.9061 81.9823 61.3277 79.2642 62.7661C77.4833 63.7071 74.7652 64.9391 74.0548 67.0207C73.8447 67.6401 74.8152 67.8838 75.0253 67.2711C75.6723 65.3757 78.8473 64.1437 80.4815 63.2671C81.8989 62.5089 83.2263 61.6729 84.1834 60.3359C85.6976 58.2239 86.9416 54.7749 85.8443 52.2737C84.5036 49.2139 82.4525 47.8567 79.1775 47.8804C76.2627 47.9007 73.3245 48.9567 71.9537 51.7321C71.6636 52.3143 72.5374 52.8084 72.8242 52.2263Z" fill="#727272"/>
<path d="M54.3081 59.571C51.3666 60.0144 48.8819 62.2348 48.5851 65.3385C48.3016 68.2967 50.2693 72.1485 53.6111 71.9217C56.6593 71.7152 59.3674 68.7164 59.6475 65.7176C59.9577 62.4175 57.5198 59.5406 54.208 59.6861C53.5644 59.7132 53.5844 60.7286 54.228 60.7015C57.1329 60.5729 59.1339 63.2671 58.5903 66.1035C58.1501 68.3983 55.969 70.7134 53.591 70.9097C50.6695 71.15 49.1787 67.3964 49.6423 64.9594C50.0859 62.624 52.0569 60.9317 54.3281 60.5898C54.9551 60.4917 54.9451 59.4729 54.3081 59.571Z" fill="#727272"/>
<path d="M54.8815 60.0144C54.7048 57.8617 58.0365 54.5888 59.7041 57.0799C60.221 57.8516 60.7213 59.2224 60.5078 60.1735C60.2777 61.1923 59.2938 61.9538 58.5401 62.58C58.0432 62.9929 58.7702 63.6935 59.2605 63.284C60.4478 62.299 61.6684 61.1178 61.555 59.4288C61.4616 58.0479 60.7079 56.2269 59.5206 55.4688C56.986 53.8475 53.6776 57.5605 53.881 60.0381C53.9344 60.6846 54.9349 60.6676 54.8815 60.0144Z" fill="#727272"/>
<path d="M59.5274 63.5108C60.7814 62.756 64.0264 62.9557 63.6896 65.1355C63.3694 67.2136 60.718 67.2983 59.1472 67.3186C58.5035 67.3253 58.5235 68.3407 59.1672 68.334C61.3717 68.3069 65.227 67.6029 64.6767 64.4382C64.2432 61.9539 60.788 61.568 59.0038 62.6443C58.4501 62.9794 58.9704 63.8459 59.5274 63.5108Z" fill="#727272"/>
<path d="M58.5203 68.52C60.2745 69.3053 62.2489 71.6373 60.5814 73.5192C58.6304 75.7192 55.8089 73.5429 55.0885 71.4207C54.8784 70.8047 53.9179 71.089 54.128 71.7118C55.0618 74.4534 58.4269 76.8226 61.0216 74.4974C63.5429 72.2398 61.5385 68.7671 59.0072 67.6299C58.4236 67.3692 57.9333 68.256 58.5203 68.52Z" fill="#727272"/>
<path d="M53.6476 71.6745C53.7377 73.3804 53.2674 75.9189 51.0063 75.6143C49.9791 75.4755 49.1886 74.538 49.2353 73.4752C49.2754 72.5207 49.939 71.4071 50.3026 70.5339C50.5494 69.9382 49.6789 69.4373 49.4288 70.0397C48.8985 71.3191 47.978 72.8118 48.3182 74.257C48.595 75.4281 49.5055 76.3589 50.6728 76.5924C53.651 77.1915 54.7749 74.0743 54.6482 71.6508C54.6148 71.001 53.6143 71.0179 53.6476 71.6745Z" fill="#727272"/>
<path d="M50.1656 69.2715C48.3013 70.0533 45.4232 69.8536 44.7728 67.481C44.4894 66.4385 44.8062 65.2065 45.77 64.6412C46.7072 64.0929 47.9178 64.2385 48.9383 64.3637C49.5687 64.4415 49.8221 63.4566 49.1851 63.3787C47.7711 63.2061 46.1669 63.0538 44.9496 63.9745C43.9391 64.7394 43.5288 66.0797 43.7223 67.3151C44.2225 70.5069 47.9011 71.309 50.4491 70.2429C51.0428 69.9992 50.7626 69.021 50.1656 69.2715Z" fill="#727272"/>
<path d="M49.5452 63.4938C47.861 62.58 46.9805 59.2224 48.458 57.7703C50.399 55.8648 52.7835 58.5657 53.9575 60.0279C54.3644 60.5322 55.0514 59.7978 54.6512 59.2968C53.1171 57.3879 49.7987 54.4669 47.5308 57.2186C45.8633 59.2461 46.8605 63.1892 49.0583 64.384C49.6252 64.692 50.1155 63.8052 49.5452 63.4938Z" fill="#727272"/>
<path d="M51.153 70.9571C50.3626 71.7288 49.849 73.8171 51.0629 74.45C52.517 75.2116 53.1607 72.6223 53.3541 71.6881C53.4408 71.2617 52.7938 71.0958 52.7071 71.5223C52.6204 71.9454 52.5104 72.3617 52.3569 72.7679C52.2802 72.9676 52.1969 73.1672 52.0968 73.3568C51.9434 73.6513 51.8533 73.8408 51.4998 73.8002C50.546 73.6817 51.1997 71.8506 51.6366 71.4275C51.9434 71.1229 51.4631 70.6558 51.153 70.9571Z" fill="#727272"/>
<path d="M55.4519 71.0044C55.2818 71.9792 56.369 72.7441 57.1461 73.0927C57.9331 73.4448 59.0304 73.5632 59.7674 73.0115C60.4711 72.4835 60.3611 71.5256 60.0576 70.7946C59.644 69.7995 58.7936 69.1293 57.8098 68.7773C57.4029 68.6318 57.2428 69.2918 57.6463 69.4339C58.24 69.6472 58.7736 70.0059 59.1504 70.5272C59.2805 70.7099 59.3806 70.9029 59.4639 71.1127C59.6574 71.6069 59.6874 71.8303 59.3439 72.2601C59.0504 72.6257 58.897 72.7103 58.4501 72.7137C58.1699 72.7137 57.8798 72.6561 57.6163 72.5614C57.2128 72.4158 55.9955 71.7727 56.0989 71.177C56.1722 70.7438 55.5286 70.5746 55.4519 71.0044Z" fill="#727272"/>
<path d="M59.3203 66.6248C60.1574 66.838 60.9912 66.4725 61.6949 66.0223C62.2085 65.694 62.8855 65.0949 62.8255 64.401C62.7754 63.8223 62.2085 63.5481 61.7015 63.4872C60.8278 63.3789 59.9706 63.7613 59.2603 64.242C58.9034 64.4823 59.2503 65.0644 59.6071 64.8207C59.9773 64.5669 60.3709 64.3435 60.8077 64.2318C61.2113 64.1269 62.3852 63.9577 62.0284 64.8072C61.7149 65.562 60.1941 66.1475 59.4837 65.9681C59.0668 65.8632 58.9034 66.5198 59.3203 66.6248Z" fill="#727272"/>
<path d="M56.2088 60.3056C56.1554 59.7911 56.2621 59.28 56.629 58.9009C56.8958 58.62 57.5428 58.2477 57.923 58.4643C58.2598 58.6572 58.2365 59.4696 58.2365 59.8453C58.2332 60.3834 58.1198 60.8945 57.943 61.3988C57.7996 61.8084 58.4466 61.9708 58.59 61.5647C58.8768 60.7456 58.9769 59.8859 58.8401 59.0228C58.7468 58.4305 58.6467 57.8415 57.9897 57.7535C56.5356 57.5538 55.405 58.9246 55.5484 60.3225C55.5851 60.749 56.2521 60.7388 56.2088 60.3056Z" fill="#727272"/>
<path d="M50.0155 62.5698C49.4986 61.9098 49.055 60.7116 49.2285 59.8621C49.3318 59.3476 49.4519 59.1987 49.9788 59.1445C50.5058 59.0904 50.6359 59.2494 51.0161 59.5608C51.4029 59.8756 51.7798 60.2005 52.1633 60.5187C52.4935 60.7928 52.9571 60.3088 52.6236 60.0313C51.6831 59.2461 50.1723 57.4353 48.975 58.8128C48.0478 59.8824 48.6715 61.9402 49.4452 62.9252C49.7087 63.2603 50.2823 62.9116 50.0155 62.5698Z" fill="#727272"/>
<path d="M48.8182 65.2065C47.5175 64.6785 45.82 65.8529 46.0201 67.3354C46.2068 68.7401 48.438 69.2613 49.4419 68.4693C49.7754 68.2053 49.4319 67.6231 49.095 67.8905C48.5481 68.3237 47.1874 68.2087 46.7872 67.5622C46.2002 66.6246 47.6309 65.4434 48.4981 65.7988C48.8883 65.9579 49.2151 65.3689 48.8182 65.2065Z" fill="#727272"/>
</g>
<defs>
<clipPath id="clip0_1_598">
<rect width="44" height="49" fill="white" transform="translate(31)"/>
</clipPath>
<clipPath id="clip1_1_598">
<rect width="83" height="40" fill="white" transform="translate(7 45)"/>
</clipPath>
</defs>
</svg>
